<?xml version="1.0" encoding="utf-8" standalone="no"?>
<!DOCTYPE svg PUBLIC "-//W3C//DTD SVG 1.1//EN"
  "http://www.w3.org/Graphics/SVG/1.1/DTD/svg11.dtd">
<!-- Created with matplotlib (https://matplotlib.org/) -->
<svg height="346.186875pt" version="1.1" viewBox="0 0 514.52625 346.186875" width="514.52625pt" xmlns="http://www.w3.org/2000/svg" xmlns:xlink="http://www.w3.org/1999/xlink">
 <metadata>
  <rdf:RDF xmlns:cc="http://creativecommons.org/ns#" xmlns:dc="http://purl.org/dc/elements/1.1/" xmlns:rdf="http://www.w3.org/1999/02/22-rdf-syntax-ns#">
   <cc:Work>
    <dc:type rdf:resource="http://purl.org/dc/dcmitype/StillImage"/>
    <dc:date>2022-01-27T05:16:10.362349</dc:date>
    <dc:format>image/svg+xml</dc:format>
    <dc:creator>
     <cc:Agent>
      <dc:title>Matplotlib v3.3.1, https://matplotlib.org/</dc:title>
     </cc:Agent>
    </dc:creator>
   </cc:Work>
  </rdf:RDF>
 </metadata>
 <defs>
  <style type="text/css">*{stroke-linecap:butt;stroke-linejoin:round;}</style>
 </defs>
 <g id="figure_1">
  <g id="patch_1">
   <path d="M 0 346.186875 
L 514.52625 346.186875 
L 514.52625 0 
L 0 0 
z
" style="fill:#ffffff;"/>
  </g>
  <g id="axes_1">
   <g id="patch_2">
    <path d="M 90.03375 287.589375 
L 480.63375 287.589375 
L 480.63375 15.789375 
L 90.03375 15.789375 
z
" style="fill:#ffffff;"/>
   </g>
   <g id="matplotlib.axis_1">
    <g id="xtick_1">
     <g id="text_1">
      <!-- 0 -->
      <g style="fill:#262626;" transform="translate(83.360625 308.268125)scale(0.24 -0.24)">
       <defs>
        <path d="M 4.15625 35.296875 
Q 4.15625 48 6.765625 55.734375 
Q 9.375 63.484375 14.515625 67.671875 
Q 19.671875 71.875 27.484375 71.875 
Q 33.25 71.875 37.59375 69.546875 
Q 41.9375 67.234375 44.765625 62.859375 
Q 47.609375 58.5 49.21875 52.21875 
Q 50.828125 45.953125 50.828125 35.296875 
Q 50.828125 22.703125 48.234375 14.96875 
Q 45.65625 7.234375 40.5 3 
Q 35.359375 -1.21875 27.484375 -1.21875 
Q 17.140625 -1.21875 11.234375 6.203125 
Q 4.15625 15.140625 4.15625 35.296875 
z
M 13.1875 35.296875 
Q 13.1875 17.671875 17.3125 11.828125 
Q 21.4375 6 27.484375 6 
Q 33.546875 6 37.671875 11.859375 
Q 41.796875 17.71875 41.796875 35.296875 
Q 41.796875 52.984375 37.671875 58.78125 
Q 33.546875 64.59375 27.390625 64.59375 
Q 21.34375 64.59375 17.71875 59.46875 
Q 13.1875 52.9375 13.1875 35.296875 
z
" id="ArialMT-48"/>
       </defs>
       <use xlink:href="#ArialMT-48"/>
      </g>
     </g>
    </g>
    <g id="xtick_2">
     <g id="text_2">
      <!-- 200 -->
      <g style="fill:#262626;" transform="translate(148.134375 308.268125)scale(0.24 -0.24)">
       <defs>
        <path d="M 50.34375 8.453125 
L 50.34375 0 
L 3.03125 0 
Q 2.9375 3.171875 4.046875 6.109375 
Q 5.859375 10.9375 9.828125 15.625 
Q 13.8125 20.3125 21.34375 26.46875 
Q 33.015625 36.03125 37.109375 41.625 
Q 41.21875 47.21875 41.21875 52.203125 
Q 41.21875 57.421875 37.46875 61 
Q 33.734375 64.59375 27.734375 64.59375 
Q 21.390625 64.59375 17.578125 60.78125 
Q 13.765625 56.984375 13.71875 50.25 
L 4.6875 51.171875 
Q 5.609375 61.28125 11.65625 66.578125 
Q 17.71875 71.875 27.9375 71.875 
Q 38.234375 71.875 44.234375 66.15625 
Q 50.25 60.453125 50.25 52 
Q 50.25 47.703125 48.484375 43.546875 
Q 46.734375 39.40625 42.65625 34.8125 
Q 38.578125 30.21875 29.109375 22.21875 
Q 21.1875 15.578125 18.9375 13.203125 
Q 16.703125 10.84375 15.234375 8.453125 
z
" id="ArialMT-50"/>
       </defs>
       <use xlink:href="#ArialMT-50"/>
       <use x="55.615234" xlink:href="#ArialMT-48"/>
       <use x="111.230469" xlink:href="#ArialMT-48"/>
      </g>
     </g>
    </g>
    <g id="xtick_3">
     <g id="text_3">
      <!-- 400 -->
      <g style="fill:#262626;" transform="translate(226.254375 308.268125)scale(0.24 -0.24)">
       <defs>
        <path d="M 32.328125 0 
L 32.328125 17.140625 
L 1.265625 17.140625 
L 1.265625 25.203125 
L 33.9375 71.578125 
L 41.109375 71.578125 
L 41.109375 25.203125 
L 50.78125 25.203125 
L 50.78125 17.140625 
L 41.109375 17.140625 
L 41.109375 0 
z
M 32.328125 25.203125 
L 32.328125 57.46875 
L 9.90625 25.203125 
z
" id="ArialMT-52"/>
       </defs>
       <use xlink:href="#ArialMT-52"/>
       <use x="55.615234" xlink:href="#ArialMT-48"/>
       <use x="111.230469" xlink:href="#ArialMT-48"/>
      </g>
     </g>
    </g>
    <g id="xtick_4">
     <g id="text_4">
      <!-- 600 -->
      <g style="fill:#262626;" transform="translate(304.374375 308.268125)scale(0.24 -0.24)">
       <defs>
        <path d="M 49.75 54.046875 
L 41.015625 53.375 
Q 39.84375 58.546875 37.703125 60.890625 
Q 34.125 64.65625 28.90625 64.65625 
Q 24.703125 64.65625 21.53125 62.3125 
Q 17.390625 59.28125 14.984375 53.46875 
Q 12.59375 47.65625 12.5 36.921875 
Q 15.671875 41.75 20.265625 44.09375 
Q 24.859375 46.4375 29.890625 46.4375 
Q 38.671875 46.4375 44.84375 39.96875 
Q 51.03125 33.5 51.03125 23.25 
Q 51.03125 16.5 48.125 10.71875 
Q 45.21875 4.9375 40.140625 1.859375 
Q 35.0625 -1.21875 28.609375 -1.21875 
Q 17.625 -1.21875 10.6875 6.859375 
Q 3.765625 14.9375 3.765625 33.5 
Q 3.765625 54.25 11.421875 63.671875 
Q 18.109375 71.875 29.4375 71.875 
Q 37.890625 71.875 43.28125 67.140625 
Q 48.6875 62.40625 49.75 54.046875 
z
M 13.875 23.1875 
Q 13.875 18.65625 15.796875 14.5 
Q 17.71875 10.359375 21.1875 8.171875 
Q 24.65625 6 28.46875 6 
Q 34.03125 6 38.03125 10.484375 
Q 42.046875 14.984375 42.046875 22.703125 
Q 42.046875 30.125 38.078125 34.390625 
Q 34.125 38.671875 28.125 38.671875 
Q 22.171875 38.671875 18.015625 34.390625 
Q 13.875 30.125 13.875 23.1875 
z
" id="ArialMT-54"/>
       </defs>
       <use xlink:href="#ArialMT-54"/>
       <use x="55.615234" xlink:href="#ArialMT-48"/>
       <use x="111.230469" xlink:href="#ArialMT-48"/>
      </g>
     </g>
    </g>
    <g id="xtick_5">
     <g id="text_5">
      <!-- 800 -->
      <g style="fill:#262626;" transform="translate(382.494375 308.268125)scale(0.24 -0.24)">
       <defs>
        <path d="M 17.671875 38.8125 
Q 12.203125 40.828125 9.5625 44.53125 
Q 6.9375 48.25 6.9375 53.421875 
Q 6.9375 61.234375 12.546875 66.546875 
Q 18.171875 71.875 27.484375 71.875 
Q 36.859375 71.875 42.578125 66.421875 
Q 48.296875 60.984375 48.296875 53.171875 
Q 48.296875 48.1875 45.671875 44.5 
Q 43.0625 40.828125 37.75 38.8125 
Q 44.34375 36.671875 47.78125 31.875 
Q 51.21875 27.09375 51.21875 20.453125 
Q 51.21875 11.28125 44.71875 5.03125 
Q 38.234375 -1.21875 27.640625 -1.21875 
Q 17.046875 -1.21875 10.546875 5.046875 
Q 4.046875 11.328125 4.046875 20.703125 
Q 4.046875 27.6875 7.59375 32.390625 
Q 11.140625 37.109375 17.671875 38.8125 
z
M 15.921875 53.71875 
Q 15.921875 48.640625 19.1875 45.40625 
Q 22.46875 42.1875 27.6875 42.1875 
Q 32.765625 42.1875 36.015625 45.375 
Q 39.265625 48.578125 39.265625 53.21875 
Q 39.265625 58.0625 35.90625 61.359375 
Q 32.5625 64.65625 27.59375 64.65625 
Q 22.5625 64.65625 19.234375 61.421875 
Q 15.921875 58.203125 15.921875 53.71875 
z
M 13.09375 20.65625 
Q 13.09375 16.890625 14.875 13.375 
Q 16.65625 9.859375 20.171875 7.921875 
Q 23.6875 6 27.734375 6 
Q 34.03125 6 38.125 10.046875 
Q 42.234375 14.109375 42.234375 20.359375 
Q 42.234375 26.703125 38.015625 30.859375 
Q 33.796875 35.015625 27.4375 35.015625 
Q 21.234375 35.015625 17.15625 30.90625 
Q 13.09375 26.8125 13.09375 20.65625 
z
" id="ArialMT-56"/>
       </defs>
       <use xlink:href="#ArialMT-56"/>
       <use x="55.615234" xlink:href="#ArialMT-48"/>
       <use x="111.230469" xlink:href="#ArialMT-48"/>
      </g>
     </g>
    </g>
    <g id="xtick_6">
     <g id="text_6">
      <!-- 1000 -->
      <g style="fill:#262626;" transform="translate(453.94125 308.268125)scale(0.24 -0.24)">
       <defs>
        <path d="M 37.25 0 
L 28.46875 0 
L 28.46875 56 
Q 25.296875 52.984375 20.140625 49.953125 
Q 14.984375 46.921875 10.890625 45.40625 
L 10.890625 53.90625 
Q 18.265625 57.375 23.78125 62.296875 
Q 29.296875 67.234375 31.59375 71.875 
L 37.25 71.875 
z
" id="ArialMT-49"/>
       </defs>
       <use xlink:href="#ArialMT-49"/>
       <use x="55.615234" xlink:href="#ArialMT-48"/>
       <use x="111.230469" xlink:href="#ArialMT-48"/>
       <use x="166.845703" xlink:href="#ArialMT-48"/>
      </g>
     </g>
    </g>
    <g id="text_7">
     <!-- trial iteration -->
     <g style="fill:#262626;" transform="translate(219.976875 334.216875)scale(0.24 -0.24)">
      <defs>
       <path d="M 25.78125 7.859375 
L 27.046875 0.09375 
Q 23.34375 -0.6875 20.40625 -0.6875 
Q 15.625 -0.6875 12.984375 0.828125 
Q 10.359375 2.34375 9.28125 4.8125 
Q 8.203125 7.28125 8.203125 15.1875 
L 8.203125 45.015625 
L 1.765625 45.015625 
L 1.765625 51.859375 
L 8.203125 51.859375 
L 8.203125 64.703125 
L 16.9375 69.96875 
L 16.9375 51.859375 
L 25.78125 51.859375 
L 25.78125 45.015625 
L 16.9375 45.015625 
L 16.9375 14.703125 
Q 16.9375 10.9375 17.40625 9.859375 
Q 17.875 8.796875 18.921875 8.15625 
Q 19.96875 7.515625 21.921875 7.515625 
Q 23.390625 7.515625 25.78125 7.859375 
z
" id="ArialMT-116"/>
       <path d="M 6.5 0 
L 6.5 51.859375 
L 14.40625 51.859375 
L 14.40625 44 
Q 17.4375 49.515625 20 51.265625 
Q 22.5625 53.03125 25.640625 53.03125 
Q 30.078125 53.03125 34.671875 50.203125 
L 31.640625 42.046875 
Q 28.421875 43.953125 25.203125 43.953125 
Q 22.3125 43.953125 20.015625 42.21875 
Q 17.71875 40.484375 16.75 37.40625 
Q 15.28125 32.71875 15.28125 27.15625 
L 15.28125 0 
z
" id="ArialMT-114"/>
       <path d="M 6.640625 61.46875 
L 6.640625 71.578125 
L 15.4375 71.578125 
L 15.4375 61.46875 
z
M 6.640625 0 
L 6.640625 51.859375 
L 15.4375 51.859375 
L 15.4375 0 
z
" id="ArialMT-105"/>
       <path d="M 40.4375 6.390625 
Q 35.546875 2.25 31.03125 0.53125 
Q 26.515625 -1.171875 21.34375 -1.171875 
Q 12.796875 -1.171875 8.203125 3 
Q 3.609375 7.171875 3.609375 13.671875 
Q 3.609375 17.484375 5.34375 20.625 
Q 7.078125 23.78125 9.890625 25.6875 
Q 12.703125 27.59375 16.21875 28.5625 
Q 18.796875 29.25 24.03125 29.890625 
Q 34.671875 31.15625 39.703125 32.90625 
Q 39.75 34.71875 39.75 35.203125 
Q 39.75 40.578125 37.25 42.78125 
Q 33.890625 45.75 27.25 45.75 
Q 21.046875 45.75 18.09375 43.578125 
Q 15.140625 41.40625 13.71875 35.890625 
L 5.125 37.0625 
Q 6.296875 42.578125 8.984375 45.96875 
Q 11.671875 49.359375 16.75 51.1875 
Q 21.828125 53.03125 28.515625 53.03125 
Q 35.15625 53.03125 39.296875 51.46875 
Q 43.453125 49.90625 45.40625 47.53125 
Q 47.359375 45.171875 48.140625 41.546875 
Q 48.578125 39.3125 48.578125 33.453125 
L 48.578125 21.734375 
Q 48.578125 9.46875 49.140625 6.21875 
Q 49.703125 2.984375 51.375 0 
L 42.1875 0 
Q 40.828125 2.734375 40.4375 6.390625 
z
M 39.703125 26.03125 
Q 34.90625 24.078125 25.34375 22.703125 
Q 19.921875 21.921875 17.671875 20.9375 
Q 15.4375 19.96875 14.203125 18.09375 
Q 12.984375 16.21875 12.984375 13.921875 
Q 12.984375 10.40625 15.640625 8.0625 
Q 18.3125 5.71875 23.4375 5.71875 
Q 28.515625 5.71875 32.46875 7.9375 
Q 36.421875 10.15625 38.28125 14.015625 
Q 39.703125 17 39.703125 22.796875 
z
" id="ArialMT-97"/>
       <path d="M 6.390625 0 
L 6.390625 71.578125 
L 15.1875 71.578125 
L 15.1875 0 
z
" id="ArialMT-108"/>
       <path id="ArialMT-32"/>
       <path d="M 42.09375 16.703125 
L 51.171875 15.578125 
Q 49.03125 7.625 43.21875 3.21875 
Q 37.40625 -1.171875 28.375 -1.171875 
Q 17 -1.171875 10.328125 5.828125 
Q 3.65625 12.84375 3.65625 25.484375 
Q 3.65625 38.578125 10.390625 45.796875 
Q 17.140625 53.03125 27.875 53.03125 
Q 38.28125 53.03125 44.875 45.953125 
Q 51.46875 38.875 51.46875 26.03125 
Q 51.46875 25.25 51.421875 23.6875 
L 12.75 23.6875 
Q 13.234375 15.140625 17.578125 10.59375 
Q 21.921875 6.0625 28.421875 6.0625 
Q 33.25 6.0625 36.671875 8.59375 
Q 40.09375 11.140625 42.09375 16.703125 
z
M 13.234375 30.90625 
L 42.1875 30.90625 
Q 41.609375 37.453125 38.875 40.71875 
Q 34.671875 45.796875 27.984375 45.796875 
Q 21.921875 45.796875 17.796875 41.75 
Q 13.671875 37.703125 13.234375 30.90625 
z
" id="ArialMT-101"/>
       <path d="M 3.328125 25.921875 
Q 3.328125 40.328125 11.328125 47.265625 
Q 18.015625 53.03125 27.640625 53.03125 
Q 38.328125 53.03125 45.109375 46.015625 
Q 51.90625 39.015625 51.90625 26.65625 
Q 51.90625 16.65625 48.90625 10.90625 
Q 45.90625 5.171875 40.15625 2 
Q 34.421875 -1.171875 27.640625 -1.171875 
Q 16.75 -1.171875 10.03125 5.8125 
Q 3.328125 12.796875 3.328125 25.921875 
z
M 12.359375 25.921875 
Q 12.359375 15.96875 16.703125 11.015625 
Q 21.046875 6.0625 27.640625 6.0625 
Q 34.1875 6.0625 38.53125 11.03125 
Q 42.875 16.015625 42.875 26.21875 
Q 42.875 35.84375 38.5 40.796875 
Q 34.125 45.75 27.640625 45.75 
Q 21.046875 45.75 16.703125 40.8125 
Q 12.359375 35.890625 12.359375 25.921875 
z
" id="ArialMT-111"/>
       <path d="M 6.59375 0 
L 6.59375 51.859375 
L 14.5 51.859375 
L 14.5 44.484375 
Q 20.21875 53.03125 31 53.03125 
Q 35.6875 53.03125 39.625 51.34375 
Q 43.5625 49.65625 45.515625 46.921875 
Q 47.46875 44.1875 48.25 40.4375 
Q 48.734375 37.984375 48.734375 31.890625 
L 48.734375 0 
L 39.9375 0 
L 39.9375 31.546875 
Q 39.9375 36.921875 38.90625 39.578125 
Q 37.890625 42.234375 35.28125 43.8125 
Q 32.671875 45.40625 29.15625 45.40625 
Q 23.53125 45.40625 19.453125 41.84375 
Q 15.375 38.28125 15.375 28.328125 
L 15.375 0 
z
" id="ArialMT-110"/>
      </defs>
      <use xlink:href="#ArialMT-116"/>
      <use x="27.783203" xlink:href="#ArialMT-114"/>
      <use x="61.083984" xlink:href="#ArialMT-105"/>
      <use x="83.300781" xlink:href="#ArialMT-97"/>
      <use x="138.916016" xlink:href="#ArialMT-108"/>
      <use x="161.132812" xlink:href="#ArialMT-32"/>
      <use x="188.916016" xlink:href="#ArialMT-105"/>
      <use x="211.132812" xlink:href="#ArialMT-116"/>
      <use x="238.916016" xlink:href="#ArialMT-101"/>
      <use x="294.53125" xlink:href="#ArialMT-114"/>
      <use x="327.832031" xlink:href="#ArialMT-97"/>
      <use x="383.447266" xlink:href="#ArialMT-116"/>
      <use x="411.230469" xlink:href="#ArialMT-105"/>
      <use x="433.447266" xlink:href="#ArialMT-111"/>
      <use x="489.0625" xlink:href="#ArialMT-110"/>
     </g>
    </g>
   </g>
   <g id="matplotlib.axis_2">
    <g id="ytick_1">
     <g id="text_8">
      <!-- 0 -->
      <g style="fill:#262626;" transform="translate(73.1875 296.17875)scale(0.24 -0.24)">
       <use xlink:href="#ArialMT-48"/>
      </g>
     </g>
    </g>
    <g id="ytick_2">
     <g id="text_9">
      <!-- 200 -->
      <g style="fill:#262626;" transform="translate(46.495 241.81875)scale(0.24 -0.24)">
       <use xlink:href="#ArialMT-50"/>
       <use x="55.615234" xlink:href="#ArialMT-48"/>
       <use x="111.230469" xlink:href="#ArialMT-48"/>
      </g>
     </g>
    </g>
    <g id="ytick_3">
     <g id="text_10">
      <!-- 400 -->
      <g style="fill:#262626;" transform="translate(46.495 187.45875)scale(0.24 -0.24)">
       <use xlink:href="#ArialMT-52"/>
       <use x="55.615234" xlink:href="#ArialMT-48"/>
       <use x="111.230469" xlink:href="#ArialMT-48"/>
      </g>
     </g>
    </g>
    <g id="ytick_4">
     <g id="text_11">
      <!-- 600 -->
      <g style="fill:#262626;" transform="translate(46.495 133.09875)scale(0.24 -0.24)">
       <use xlink:href="#ArialMT-54"/>
       <use x="55.615234" xlink:href="#ArialMT-48"/>
       <use x="111.230469" xlink:href="#ArialMT-48"/>
      </g>
     </g>
    </g>
    <g id="ytick_5">
     <g id="text_12">
      <!-- 800 -->
      <g style="fill:#262626;" transform="translate(46.495 78.73875)scale(0.24 -0.24)">
       <use xlink:href="#ArialMT-56"/>
       <use x="55.615234" xlink:href="#ArialMT-48"/>
       <use x="111.230469" xlink:href="#ArialMT-48"/>
      </g>
     </g>
    </g>
    <g id="ytick_6">
     <g id="text_13">
      <!-- 1000 -->
      <g style="fill:#262626;" transform="translate(33.14875 24.37875)scale(0.24 -0.24)">
       <use xlink:href="#ArialMT-49"/>
       <use x="55.615234" xlink:href="#ArialMT-48"/>
       <use x="111.230469" xlink:href="#ArialMT-48"/>
       <use x="166.845703" xlink:href="#ArialMT-48"/>
      </g>
     </g>
    </g>
    <g id="text_14">
     <!-- cumulative wins -->
     <g style="fill:#262626;" transform="translate(24.37875 236.383125)rotate(-90)scale(0.24 -0.24)">
      <defs>
       <path d="M 40.4375 19 
L 49.078125 17.875 
Q 47.65625 8.9375 41.8125 3.875 
Q 35.984375 -1.171875 27.484375 -1.171875 
Q 16.84375 -1.171875 10.375 5.78125 
Q 3.90625 12.75 3.90625 25.734375 
Q 3.90625 34.125 6.6875 40.421875 
Q 9.46875 46.734375 15.15625 49.875 
Q 20.84375 53.03125 27.546875 53.03125 
Q 35.984375 53.03125 41.359375 48.75 
Q 46.734375 44.484375 48.25 36.625 
L 39.703125 35.296875 
Q 38.484375 40.53125 35.375 43.15625 
Q 32.28125 45.796875 27.875 45.796875 
Q 21.234375 45.796875 17.078125 41.03125 
Q 12.9375 36.28125 12.9375 25.984375 
Q 12.9375 15.53125 16.9375 10.796875 
Q 20.953125 6.0625 27.390625 6.0625 
Q 32.5625 6.0625 36.03125 9.234375 
Q 39.5 12.40625 40.4375 19 
z
" id="ArialMT-99"/>
       <path d="M 40.578125 0 
L 40.578125 7.625 
Q 34.515625 -1.171875 24.125 -1.171875 
Q 19.53125 -1.171875 15.546875 0.578125 
Q 11.578125 2.34375 9.640625 5 
Q 7.71875 7.671875 6.9375 11.53125 
Q 6.390625 14.109375 6.390625 19.734375 
L 6.390625 51.859375 
L 15.1875 51.859375 
L 15.1875 23.09375 
Q 15.1875 16.21875 15.71875 13.8125 
Q 16.546875 10.359375 19.234375 8.375 
Q 21.921875 6.390625 25.875 6.390625 
Q 29.828125 6.390625 33.296875 8.421875 
Q 36.765625 10.453125 38.203125 13.9375 
Q 39.65625 17.4375 39.65625 24.078125 
L 39.65625 51.859375 
L 48.4375 51.859375 
L 48.4375 0 
z
" id="ArialMT-117"/>
       <path d="M 6.59375 0 
L 6.59375 51.859375 
L 14.453125 51.859375 
L 14.453125 44.578125 
Q 16.890625 48.390625 20.9375 50.703125 
Q 25 53.03125 30.171875 53.03125 
Q 35.9375 53.03125 39.625 50.640625 
Q 43.3125 48.25 44.828125 43.953125 
Q 50.984375 53.03125 60.84375 53.03125 
Q 68.5625 53.03125 72.703125 48.75 
Q 76.859375 44.484375 76.859375 35.59375 
L 76.859375 0 
L 68.109375 0 
L 68.109375 32.671875 
Q 68.109375 37.9375 67.25 40.25 
Q 66.40625 42.578125 64.15625 43.984375 
Q 61.921875 45.40625 58.890625 45.40625 
Q 53.421875 45.40625 49.796875 41.765625 
Q 46.1875 38.140625 46.1875 30.125 
L 46.1875 0 
L 37.40625 0 
L 37.40625 33.6875 
Q 37.40625 39.546875 35.25 42.46875 
Q 33.109375 45.40625 28.21875 45.40625 
Q 24.515625 45.40625 21.359375 43.453125 
Q 18.21875 41.5 16.796875 37.734375 
Q 15.375 33.984375 15.375 26.90625 
L 15.375 0 
z
" id="ArialMT-109"/>
       <path d="M 21 0 
L 1.265625 51.859375 
L 10.546875 51.859375 
L 21.6875 20.796875 
Q 23.484375 15.765625 25 10.359375 
Q 26.171875 14.453125 28.265625 20.21875 
L 39.796875 51.859375 
L 48.828125 51.859375 
L 29.203125 0 
z
" id="ArialMT-118"/>
       <path d="M 16.15625 0 
L 0.296875 51.859375 
L 9.375 51.859375 
L 17.625 21.921875 
L 20.703125 10.796875 
Q 20.90625 11.625 23.390625 21.484375 
L 31.640625 51.859375 
L 40.671875 51.859375 
L 48.4375 21.78125 
L 51.03125 11.859375 
L 54 21.875 
L 62.890625 51.859375 
L 71.4375 51.859375 
L 55.21875 0 
L 46.09375 0 
L 37.84375 31.0625 
L 35.84375 39.890625 
L 25.34375 0 
z
" id="ArialMT-119"/>
       <path d="M 3.078125 15.484375 
L 11.765625 16.84375 
Q 12.5 11.625 15.84375 8.84375 
Q 19.1875 6.0625 25.203125 6.0625 
Q 31.25 6.0625 34.171875 8.515625 
Q 37.109375 10.984375 37.109375 14.3125 
Q 37.109375 17.28125 34.515625 19 
Q 32.71875 20.171875 25.53125 21.96875 
Q 15.875 24.421875 12.140625 26.203125 
Q 8.40625 27.984375 6.46875 31.125 
Q 4.546875 34.28125 4.546875 38.09375 
Q 4.546875 41.546875 6.125 44.5 
Q 7.71875 47.46875 10.453125 49.421875 
Q 12.5 50.921875 16.03125 51.96875 
Q 19.578125 53.03125 23.640625 53.03125 
Q 29.734375 53.03125 34.34375 51.265625 
Q 38.96875 49.515625 41.15625 46.5 
Q 43.359375 43.5 44.1875 38.484375 
L 35.59375 37.3125 
Q 35.015625 41.3125 32.203125 43.546875 
Q 29.390625 45.796875 24.265625 45.796875 
Q 18.21875 45.796875 15.625 43.796875 
Q 13.03125 41.796875 13.03125 39.109375 
Q 13.03125 37.40625 14.109375 36.03125 
Q 15.1875 34.625 17.484375 33.6875 
Q 18.796875 33.203125 25.25 31.453125 
Q 34.578125 28.953125 38.25 27.359375 
Q 41.9375 25.78125 44.03125 22.75 
Q 46.140625 19.734375 46.140625 15.234375 
Q 46.140625 10.84375 43.578125 6.953125 
Q 41.015625 3.078125 36.171875 0.953125 
Q 31.34375 -1.171875 25.25 -1.171875 
Q 15.140625 -1.171875 9.84375 3.03125 
Q 4.546875 7.234375 3.078125 15.484375 
z
" id="ArialMT-115"/>
      </defs>
      <use xlink:href="#ArialMT-99"/>
      <use x="50" xlink:href="#ArialMT-117"/>
      <use x="105.615234" xlink:href="#ArialMT-109"/>
      <use x="188.916016" xlink:href="#ArialMT-117"/>
      <use x="244.53125" xlink:href="#ArialMT-108"/>
      <use x="266.748047" xlink:href="#ArialMT-97"/>
      <use x="322.363281" xlink:href="#ArialMT-116"/>
      <use x="350.146484" xlink:href="#ArialMT-105"/>
      <use x="372.363281" xlink:href="#ArialMT-118"/>
      <use x="422.363281" xlink:href="#ArialMT-101"/>
      <use x="477.978516" xlink:href="#ArialMT-32"/>
      <use x="505.761719" xlink:href="#ArialMT-119"/>
      <use x="577.978516" xlink:href="#ArialMT-105"/>
      <use x="600.195312" xlink:href="#ArialMT-110"/>
      <use x="655.810547" xlink:href="#ArialMT-115"/>
     </g>
    </g>
   </g>
   <g id="line2d_1">
    <path clip-path="url(#p24a5377d7f)" d="M 90.03375 287.589375 
L 94.33035 287.589375 
L 94.72095 287.317575 
L 100.18935 287.317575 
L 100.57995 287.045775 
L 103.70475 287.045775 
L 104.09535 286.773975 
L 104.48595 286.773975 
L 104.87655 286.502175 
L 115.81335 286.502175 
L 116.20395 286.230375 
L 118.54755 286.230375 
L 118.93815 285.958575 
L 119.32875 285.958575 
L 120.10995 285.414975 
L 125.57835 285.414975 
L 125.96895 285.143175 
L 126.35955 285.143175 
L 126.75015 284.871375 
L 131.43735 284.871375 
L 131.82795 284.599575 
L 132.99975 284.599575 
L 133.39035 284.327775 
L 134.56215 284.327775 
L 134.95275 284.055975 
L 138.85875 284.055975 
L 140.03055 283.240575 
L 140.42115 283.240575 
L 140.81175 282.968775 
L 142.76475 282.968775 
L 143.54595 282.425175 
L 146.28015 282.425175 
L 147.06135 281.881575 
L 147.45195 281.881575 
L 147.84255 281.609775 
L 148.62375 281.609775 
L 149.40495 281.066175 
L 152.52975 281.066175 
L 152.92035 280.794375 
L 153.31095 280.794375 
L 153.70155 280.522575 
L 154.48275 280.522575 
L 155.26395 279.978975 
L 157.21695 279.978975 
L 157.60755 279.707175 
L 157.99815 279.707175 
L 158.38875 279.435375 
L 162.29475 279.435375 
L 163.07595 278.891775 
L 163.46655 278.891775 
L 163.85715 278.619975 
L 164.24775 278.619975 
L 165.41955 277.804575 
L 165.81015 277.804575 
L 166.20075 277.532775 
L 169.32555 277.532775 
L 169.71615 277.260975 
L 172.45035 277.260975 
L 172.84095 276.989175 
L 173.62215 276.989175 
L 174.01275 276.717375 
L 176.74695 276.717375 
L 177.13755 276.445575 
L 179.09055 276.445575 
L 179.48115 276.173775 
L 179.87175 276.173775 
L 181.04355 275.358375 
L 181.43415 275.358375 
L 182.99655 274.271175 
L 183.77775 274.271175 
L 184.16835 273.999375 
L 186.51195 273.999375 
L 186.90255 273.727575 
L 187.29315 273.727575 
L 187.68375 273.455775 
L 188.07435 273.455775 
L 188.46495 273.183975 
L 188.85555 273.183975 
L 189.24615 272.912175 
L 190.80855 272.912175 
L 191.19915 272.640375 
L 192.76155 272.640375 
L 193.15215 272.368575 
L 193.54275 272.368575 
L 193.93335 272.096775 
L 194.32395 272.096775 
L 194.71455 271.824975 
L 197.05815 271.824975 
L 197.44875 271.553175 
L 199.01115 271.553175 
L 199.40175 271.281375 
L 202.13595 271.281375 
L 203.30775 270.465975 
L 204.47955 270.465975 
L 204.87015 270.194175 
L 205.26075 270.194175 
L 205.65135 269.922375 
L 206.04195 269.922375 
L 206.43255 269.650575 
L 207.60435 269.650575 
L 207.99495 269.378775 
L 208.77615 269.378775 
L 209.16675 269.106975 
L 209.55735 269.106975 
L 210.72915 268.291575 
L 211.11975 268.291575 
L 211.51035 268.019775 
L 211.90095 268.019775 
L 212.68215 267.476175 
L 213.85395 267.476175 
L 214.24455 267.204375 
L 216.19755 267.204375 
L 217.75995 266.117175 
L 218.15055 266.117175 
L 218.93175 265.573575 
L 219.71295 265.573575 
L 220.49415 265.029975 
L 220.88475 265.029975 
L 222.44715 263.942775 
L 223.61895 263.942775 
L 224.79075 263.127375 
L 225.57195 263.127375 
L 225.96255 262.855575 
L 226.74375 262.855575 
L 227.13435 262.583775 
L 228.30615 262.583775 
L 228.69675 262.311975 
L 229.47795 262.311975 
L 229.86855 262.040175 
L 230.25915 262.040175 
L 230.64975 261.768375 
L 231.82155 261.768375 
L 232.21215 261.496575 
L 232.99335 261.496575 
L 234.16515 260.681175 
L 235.33695 260.681175 
L 235.72755 260.409375 
L 236.50875 260.409375 
L 237.28995 259.865775 
L 238.07115 259.865775 
L 238.85235 259.322175 
L 239.63355 259.322175 
L 240.41475 258.778575 
L 240.80535 258.778575 
L 241.19595 258.506775 
L 241.58655 258.506775 
L 241.97715 258.234975 
L 242.75835 258.234975 
L 243.53955 257.691375 
L 246.27375 257.691375 
L 247.05495 257.147775 
L 247.83615 257.147775 
L 249.00795 256.332375 
L 249.39855 256.332375 
L 249.78915 256.060575 
L 251.74215 256.060575 
L 252.13275 255.788775 
L 253.30455 255.788775 
L 253.69515 255.516975 
L 256.42935 255.516975 
L 257.21055 254.973375 
L 258.38235 254.973375 
L 259.16355 254.429775 
L 260.33535 254.429775 
L 260.72595 254.157975 
L 261.89775 254.157975 
L 262.28835 253.886175 
L 263.46015 253.886175 
L 263.85075 253.614375 
L 264.24135 253.614375 
L 264.63195 253.342575 
L 265.41315 253.342575 
L 266.19435 252.798975 
L 266.58495 252.798975 
L 267.36615 252.255375 
L 269.31915 252.255375 
L 269.70975 251.983575 
L 271.66275 251.983575 
L 272.05335 251.711775 
L 272.83455 251.711775 
L 273.22515 251.439975 
L 277.91235 251.439975 
L 278.30295 251.168175 
L 278.69355 251.168175 
L 279.08415 250.896375 
L 279.47475 250.896375 
L 279.86535 250.624575 
L 280.64655 250.624575 
L 281.42775 250.080975 
L 281.81835 250.080975 
L 282.59955 249.537375 
L 283.77135 249.537375 
L 284.94315 248.721975 
L 285.72435 248.721975 
L 286.11495 248.450175 
L 286.89615 248.450175 
L 287.28675 248.178375 
L 287.67735 248.178375 
L 288.06795 247.906575 
L 288.45855 247.906575 
L 289.23975 247.362975 
L 290.02095 247.362975 
L 290.80215 246.819375 
L 291.58335 246.819375 
L 292.36455 246.275775 
L 292.75515 246.275775 
L 293.14575 246.003975 
L 293.92695 246.003975 
L 294.70815 245.460375 
L 295.48935 245.460375 
L 296.66115 244.644975 
L 297.05175 244.644975 
L 297.44235 244.373175 
L 297.83295 244.373175 
L 298.22355 244.101375 
L 298.61415 244.101375 
L 299.00475 243.829575 
L 299.39535 243.829575 
L 299.78595 243.557775 
L 300.17655 243.557775 
L 300.56715 243.285975 
L 302.12955 243.285975 
L 302.52015 243.014175 
L 302.91075 243.014175 
L 303.30135 242.742375 
L 303.69195 242.742375 
L 304.08255 242.470575 
L 304.86375 242.470575 
L 305.25435 242.198775 
L 305.64495 242.198775 
L 306.03555 241.926975 
L 306.42615 241.926975 
L 306.81675 241.655175 
L 307.20735 241.655175 
L 307.59795 241.383375 
L 308.37915 241.383375 
L 308.76975 241.111575 
L 309.16035 241.111575 
L 309.55095 240.839775 
L 310.33215 240.839775 
L 310.72275 240.567975 
L 311.11335 240.567975 
L 311.89455 240.024375 
L 313.06635 240.024375 
L 314.62875 238.937175 
L 315.40995 238.937175 
L 318.53475 236.762775 
L 318.92535 236.762775 
L 320.87835 235.403775 
L 322.05015 235.403775 
L 322.44075 235.131975 
L 322.83135 235.131975 
L 323.22195 234.860175 
L 324.00315 234.860175 
L 324.39375 234.588375 
L 325.56555 234.588375 
L 325.95615 234.316575 
L 327.51855 234.316575 
L 328.69035 233.501175 
L 329.86215 233.501175 
L 330.25275 233.229375 
L 331.03395 233.229375 
L 331.81515 232.685775 
L 332.20575 232.685775 
L 332.59635 232.413975 
L 333.37755 232.413975 
L 333.76815 232.142175 
L 334.15875 232.142175 
L 334.54935 231.870375 
L 334.93995 231.870375 
L 337.28355 230.239575 
L 338.45535 230.239575 
L 339.23655 229.695975 
L 341.18955 229.695975 
L 341.97075 229.152375 
L 342.36135 229.152375 
L 343.14255 228.608775 
L 344.31435 228.608775 
L 344.70495 228.336975 
L 345.09555 228.336975 
L 345.48615 228.065175 
L 346.65795 228.065175 
L 347.82975 227.249775 
L 348.22035 227.249775 
L 349.78275 226.162575 
L 350.17335 226.162575 
L 350.95455 225.618975 
L 352.12635 225.618975 
L 352.51695 225.347175 
L 353.68875 225.347175 
L 354.86055 224.531775 
L 356.81355 224.531775 
L 357.20415 224.259975 
L 357.98535 224.259975 
L 358.37595 223.988175 
L 359.54775 223.988175 
L 359.93835 223.716375 
L 361.11015 223.716375 
L 363.45375 222.085575 
L 363.84435 222.085575 
L 364.23495 221.813775 
L 365.40675 221.813775 
L 365.79735 221.541975 
L 366.57855 221.541975 
L 366.96915 221.270175 
L 367.35975 221.270175 
L 367.75035 220.998375 
L 368.53155 220.998375 
L 369.31275 220.454775 
L 370.09395 220.454775 
L 372.04695 219.095775 
L 372.82815 219.095775 
L 373.60935 218.552175 
L 373.99995 218.552175 
L 374.39055 218.280375 
L 374.78115 218.280375 
L 375.17175 218.008575 
L 375.56235 218.008575 
L 375.95295 217.736775 
L 376.34355 217.736775 
L 377.51535 216.921375 
L 377.90595 216.921375 
L 379.07775 216.105975 
L 379.46835 216.105975 
L 380.24955 215.562375 
L 380.64015 215.562375 
L 381.81195 214.746975 
L 383.37435 214.746975 
L 383.76495 214.475175 
L 384.93675 214.475175 
L 386.10855 213.659775 
L 386.49915 213.659775 
L 386.88975 213.387975 
L 387.28035 213.387975 
L 389.62395 211.757175 
L 390.01455 211.757175 
L 391.96755 210.398175 
L 392.35815 210.398175 
L 393.13935 209.854575 
L 393.52995 209.854575 
L 393.92055 209.582775 
L 395.48295 209.582775 
L 396.26415 209.039175 
L 396.65475 209.039175 
L 397.04535 208.767375 
L 397.82655 208.767375 
L 398.21715 208.495575 
L 398.60775 208.495575 
L 399.38895 207.951975 
L 399.77955 207.951975 
L 400.56075 207.408375 
L 402.12315 207.408375 
L 404.85735 205.505775 
L 405.24795 205.505775 
L 406.81035 204.418575 
L 407.20095 204.418575 
L 407.59155 204.146775 
L 407.98215 204.146775 
L 408.37275 203.874975 
L 408.76335 203.874975 
L 409.54455 203.331375 
L 409.93515 203.331375 
L 410.32575 203.059575 
L 410.71635 203.059575 
L 411.49755 202.515975 
L 412.27875 202.515975 
L 413.05995 201.972375 
L 413.84115 201.972375 
L 414.23175 201.700575 
L 418.13775 201.700575 
L 418.91895 201.156975 
L 419.70015 201.156975 
L 420.87195 200.341575 
L 421.26255 200.341575 
L 422.04375 199.797975 
L 422.43435 199.797975 
L 423.60615 198.982575 
L 424.38735 198.982575 
L 424.77795 198.710775 
L 425.94975 198.710775 
L 426.34035 198.438975 
L 427.12155 198.438975 
L 427.51215 198.167175 
L 427.90275 198.167175 
L 428.29335 197.895375 
L 429.46515 197.895375 
L 431.41815 196.536375 
L 432.58995 196.536375 
L 432.98055 196.264575 
L 433.37115 196.264575 
L 434.54295 195.449175 
L 434.93355 195.449175 
L 436.49595 194.361975 
L 437.27715 194.361975 
L 438.44895 193.546575 
L 439.62075 193.546575 
L 440.01135 193.274775 
L 441.96435 193.274775 
L 442.35495 193.002975 
L 443.13615 193.002975 
L 443.52675 192.731175 
L 443.91735 192.731175 
L 444.30795 192.459375 
L 444.69855 192.459375 
L 445.08915 192.187575 
L 445.47975 192.187575 
L 445.87035 191.915775 
L 446.26095 191.915775 
L 446.65155 191.643975 
L 447.04215 191.643975 
L 447.43275 191.372175 
L 447.82335 191.372175 
L 448.21395 191.100375 
L 448.60455 191.100375 
L 448.99515 190.828575 
L 449.38575 190.828575 
L 450.55755 190.013175 
L 450.94815 190.013175 
L 452.11995 189.197775 
L 452.51055 189.197775 
L 452.90115 188.925975 
L 453.29175 188.925975 
L 455.24475 187.566975 
L 456.02595 187.566975 
L 456.41655 187.295175 
L 458.76015 187.295175 
L 459.15075 187.023375 
L 459.93195 187.023375 
L 460.32255 186.751575 
L 461.10375 186.751575 
L 462.27555 185.936175 
L 462.66615 185.936175 
L 464.22855 184.848975 
L 464.61915 184.848975 
L 465.40035 184.305375 
L 466.57215 184.305375 
L 466.96275 184.033575 
L 468.13455 184.033575 
L 468.91575 183.489975 
L 469.30635 183.489975 
L 470.86875 182.402775 
L 471.64995 182.402775 
L 472.04055 182.130975 
L 472.43115 182.130975 
L 473.21235 181.587375 
L 475.16535 181.587375 
L 475.94655 181.043775 
L 476.72775 181.043775 
L 477.50895 180.500175 
L 477.89955 180.500175 
L 478.29015 180.228375 
L 479.07135 180.228375 
L 479.46195 179.956575 
L 479.85255 179.956575 
L 480.63375 179.412975 
L 481.02435 179.412975 
L 481.02435 179.412975 
" style="fill:none;stroke:#ff0000;stroke-linecap:round;stroke-width:1.5;"/>
   </g>
   <g id="line2d_2">
    <path clip-path="url(#p24a5377d7f)" d="M 90.03375 287.589375 
L 93.93975 287.589375 
L 94.33035 287.317575 
L 95.89275 287.317575 
L 96.28335 287.045775 
L 99.01755 287.045775 
L 99.40815 286.773975 
L 103.70475 286.773975 
L 104.09535 286.502175 
L 109.95435 286.502175 
L 110.34495 286.230375 
L 112.68855 286.230375 
L 113.07915 285.958575 
L 116.98515 285.958575 
L 117.37575 285.686775 
L 123.23475 285.686775 
L 124.01595 285.143175 
L 124.40655 285.143175 
L 124.79715 284.871375 
L 126.75015 284.871375 
L 127.14075 284.599575 
L 129.48435 284.599575 
L 129.87495 284.327775 
L 130.65615 284.327775 
L 131.04675 284.055975 
L 138.85875 284.055975 
L 139.63995 283.512375 
L 140.03055 283.512375 
L 140.42115 283.240575 
L 140.81175 283.240575 
L 141.20235 282.968775 
L 145.49895 282.968775 
L 146.28015 282.425175 
L 146.67075 282.425175 
L 147.45195 281.881575 
L 147.84255 281.881575 
L 148.62375 281.337975 
L 149.79555 281.337975 
L 150.18615 281.066175 
L 150.96735 281.066175 
L 151.35795 280.794375 
L 153.31095 280.794375 
L 153.70155 280.522575 
L 155.26395 280.522575 
L 155.65455 280.250775 
L 157.60755 280.250775 
L 157.99815 279.978975 
L 158.38875 279.978975 
L 158.77935 279.707175 
L 160.73235 279.707175 
L 161.51355 279.163575 
L 162.29475 279.163575 
L 162.68535 278.891775 
L 164.24775 278.891775 
L 164.63835 278.619975 
L 168.15375 278.619975 
L 168.54435 278.348175 
L 169.32555 278.348175 
L 169.71615 278.076375 
L 171.27855 278.076375 
L 171.66915 277.804575 
L 177.52815 277.804575 
L 177.91875 277.532775 
L 178.69995 277.532775 
L 179.09055 277.260975 
L 185.34015 277.260975 
L 186.12135 276.717375 
L 186.51195 276.717375 
L 186.90255 276.445575 
L 188.85555 276.445575 
L 189.24615 276.173775 
L 191.98035 276.173775 
L 192.37095 275.901975 
L 193.54275 275.901975 
L 193.93335 275.630175 
L 195.49575 275.630175 
L 195.88635 275.358375 
L 197.44875 275.358375 
L 198.22995 274.814775 
L 199.01115 274.814775 
L 199.40175 274.542975 
L 199.79235 274.542975 
L 200.18295 274.271175 
L 203.69835 274.271175 
L 204.87015 273.455775 
L 205.65135 273.455775 
L 206.04195 273.183975 
L 206.43255 273.183975 
L 206.82315 272.912175 
L 207.60435 272.912175 
L 207.99495 272.640375 
L 209.55735 272.640375 
L 209.94795 272.368575 
L 211.11975 272.368575 
L 211.51035 272.096775 
L 211.90095 272.096775 
L 212.29155 271.824975 
L 213.07275 271.824975 
L 213.85395 271.281375 
L 216.19755 271.281375 
L 217.36935 270.465975 
L 218.15055 270.465975 
L 218.93175 269.922375 
L 221.66595 269.922375 
L 222.05655 269.650575 
L 222.44715 269.650575 
L 222.83775 269.378775 
L 223.22835 269.378775 
L 223.61895 269.106975 
L 225.18135 269.106975 
L 225.96255 268.563375 
L 227.52495 268.563375 
L 227.91555 268.291575 
L 228.30615 268.291575 
L 228.69675 268.019775 
L 229.86855 268.019775 
L 231.43095 266.932575 
L 232.60275 266.932575 
L 233.38395 266.388975 
L 234.55575 266.388975 
L 234.94635 266.117175 
L 235.33695 266.117175 
L 235.72755 265.845375 
L 236.50875 265.845375 
L 236.89935 265.573575 
L 237.28995 265.573575 
L 238.85235 264.486375 
L 241.19595 264.486375 
L 241.58655 264.214575 
L 241.97715 264.214575 
L 242.36775 263.942775 
L 242.75835 263.942775 
L 243.14895 263.670975 
L 243.93015 263.670975 
L 244.32075 263.399175 
L 245.10195 263.399175 
L 245.49255 263.127375 
L 246.27375 263.127375 
L 247.05495 262.583775 
L 248.61735 262.583775 
L 249.39855 262.040175 
L 250.17975 262.040175 
L 250.57035 261.768375 
L 251.74215 261.768375 
L 252.91395 260.952975 
L 253.30455 260.952975 
L 253.69515 260.681175 
L 254.08575 260.681175 
L 255.25755 259.865775 
L 255.64815 259.865775 
L 256.03875 259.593975 
L 256.42935 259.593975 
L 256.81995 259.322175 
L 257.21055 259.322175 
L 258.77295 258.234975 
L 260.33535 258.234975 
L 260.72595 257.963175 
L 261.11655 257.963175 
L 262.28835 257.147775 
L 263.06955 257.147775 
L 263.46015 256.875975 
L 263.85075 256.875975 
L 265.02255 256.060575 
L 265.41315 256.060575 
L 266.97555 254.973375 
L 267.36615 254.973375 
L 268.14735 254.429775 
L 270.10035 254.429775 
L 270.49095 254.157975 
L 270.88155 254.157975 
L 272.05335 253.342575 
L 274.39695 253.342575 
L 275.17815 252.798975 
L 276.34995 252.798975 
L 276.74055 252.527175 
L 278.30295 252.527175 
L 279.47475 251.711775 
L 279.86535 251.711775 
L 280.25595 251.439975 
L 280.64655 251.439975 
L 281.42775 250.896375 
L 282.20895 250.896375 
L 282.59955 250.624575 
L 282.99015 250.624575 
L 284.55255 249.537375 
L 284.94315 249.537375 
L 285.33375 249.265575 
L 285.72435 249.265575 
L 286.11495 248.993775 
L 287.67735 248.993775 
L 288.06795 248.721975 
L 288.45855 248.721975 
L 290.41155 247.362975 
L 290.80215 247.362975 
L 291.58335 246.819375 
L 291.97395 246.819375 
L 293.14575 246.003975 
L 293.92695 246.003975 
L 294.31755 245.732175 
L 295.09875 245.732175 
L 295.48935 245.460375 
L 296.27055 245.460375 
L 298.22355 244.101375 
L 298.61415 244.101375 
L 299.39535 243.557775 
L 299.78595 243.557775 
L 300.56715 243.014175 
L 301.73895 243.014175 
L 302.12955 242.742375 
L 302.52015 242.742375 
L 303.69195 241.926975 
L 304.08255 241.926975 
L 305.25435 241.111575 
L 305.64495 241.111575 
L 308.37915 239.208975 
L 310.72275 239.208975 
L 311.89455 238.393575 
L 312.28515 238.393575 
L 313.45695 237.578175 
L 314.23815 237.578175 
L 314.62875 237.306375 
L 315.80055 237.306375 
L 316.58175 236.762775 
L 317.36295 236.762775 
L 318.14415 236.219175 
L 318.53475 236.219175 
L 319.31595 235.675575 
L 319.70655 235.675575 
L 321.26895 234.588375 
L 322.44075 234.588375 
L 322.83135 234.316575 
L 323.61255 234.316575 
L 324.00315 234.044775 
L 324.39375 234.044775 
L 324.78435 233.772975 
L 325.95615 233.772975 
L 326.34675 233.501175 
L 326.73735 233.501175 
L 328.69035 232.142175 
L 330.25275 232.142175 
L 330.64335 231.870375 
L 331.03395 231.870375 
L 331.42455 231.598575 
L 332.20575 231.598575 
L 332.98695 231.054975 
L 334.15875 231.054975 
L 334.54935 230.783175 
L 335.33055 230.783175 
L 336.50235 229.967775 
L 336.89295 229.967775 
L 337.28355 229.695975 
L 338.06475 229.695975 
L 339.23655 228.880575 
L 339.62715 228.880575 
L 340.01775 228.608775 
L 340.79895 228.608775 
L 341.18955 228.336975 
L 341.58015 228.336975 
L 341.97075 228.065175 
L 342.36135 228.065175 
L 343.92375 226.977975 
L 345.48615 226.977975 
L 346.26735 226.434375 
L 346.65795 226.434375 
L 347.04855 226.162575 
L 347.43915 226.162575 
L 347.82975 225.890775 
L 348.22035 225.890775 
L 348.61095 225.618975 
L 349.00155 225.618975 
L 349.39215 225.347175 
L 349.78275 225.347175 
L 350.95455 224.531775 
L 351.34515 224.531775 
L 351.73575 224.259975 
L 352.12635 224.259975 
L 352.90755 223.716375 
L 354.86055 223.716375 
L 355.64175 223.172775 
L 356.03235 223.172775 
L 356.42295 222.900975 
L 357.59475 222.900975 
L 358.76655 222.085575 
L 359.15715 222.085575 
L 360.71955 220.998375 
L 361.50075 220.998375 
L 362.67255 220.182975 
L 363.06315 220.182975 
L 363.45375 219.911175 
L 363.84435 219.911175 
L 364.23495 219.639375 
L 366.18795 219.639375 
L 367.35975 218.823975 
L 367.75035 218.823975 
L 368.92215 218.008575 
L 369.31275 218.008575 
L 369.70335 217.736775 
L 370.09395 217.736775 
L 370.87515 217.193175 
L 372.04695 217.193175 
L 372.82815 216.649575 
L 373.21875 216.649575 
L 373.60935 216.377775 
L 373.99995 216.377775 
L 375.95295 215.018775 
L 376.73415 215.018775 
L 378.29655 213.931575 
L 379.46835 213.931575 
L 380.24955 213.387975 
L 381.03075 213.387975 
L 381.81195 212.844375 
L 382.59315 212.844375 
L 383.37435 212.300775 
L 384.15555 212.300775 
L 384.93675 211.757175 
L 385.32735 211.757175 
L 385.71795 211.485375 
L 386.10855 211.485375 
L 386.49915 211.213575 
L 386.88975 211.213575 
L 387.67095 210.669975 
L 388.45215 210.669975 
L 388.84275 210.398175 
L 389.62395 210.398175 
L 392.74875 208.223775 
L 393.13935 208.223775 
L 394.70175 207.136575 
L 395.48295 207.136575 
L 395.87355 206.864775 
L 396.26415 206.864775 
L 396.65475 206.592975 
L 397.43595 206.592975 
L 397.82655 206.321175 
L 398.21715 206.321175 
L 398.99835 205.777575 
L 400.17015 205.777575 
L 400.56075 205.505775 
L 401.34195 205.505775 
L 401.73255 205.233975 
L 402.12315 205.233975 
L 402.51375 204.962175 
L 402.90435 204.962175 
L 403.29495 204.690375 
L 403.68555 204.690375 
L 404.07615 204.418575 
L 406.02915 204.418575 
L 406.81035 203.874975 
L 407.20095 203.874975 
L 407.59155 203.603175 
L 407.98215 203.603175 
L 408.76335 203.059575 
L 409.54455 203.059575 
L 411.10695 201.972375 
L 411.49755 201.972375 
L 411.88815 201.700575 
L 412.27875 201.700575 
L 413.84115 200.613375 
L 414.23175 200.613375 
L 415.01295 200.069775 
L 415.40355 200.069775 
L 416.57535 199.254375 
L 417.35655 199.254375 
L 417.74715 198.982575 
L 418.13775 198.982575 
L 418.52835 198.710775 
L 418.91895 198.710775 
L 421.26255 197.079975 
L 422.04375 197.079975 
L 422.43435 196.808175 
L 422.82495 196.808175 
L 423.21555 196.536375 
L 423.60615 196.536375 
L 423.99675 196.264575 
L 425.55915 196.264575 
L 426.34035 195.720975 
L 427.12155 195.720975 
L 429.07455 194.361975 
L 429.46515 194.361975 
L 430.24635 193.818375 
L 430.63695 193.818375 
L 431.41815 193.274775 
L 431.80875 193.274775 
L 432.19935 193.002975 
L 432.98055 193.002975 
L 433.37115 192.731175 
L 434.54295 192.731175 
L 435.71475 191.915775 
L 436.49595 191.915775 
L 436.88655 191.643975 
L 437.66775 191.643975 
L 438.05835 191.372175 
L 440.40195 191.372175 
L 440.79255 191.100375 
L 443.13615 191.100375 
L 443.52675 190.828575 
L 444.69855 190.828575 
L 445.47975 190.284975 
L 445.87035 190.284975 
L 446.65155 189.741375 
L 447.04215 189.741375 
L 447.43275 189.469575 
L 447.82335 189.469575 
L 448.60455 188.925975 
L 449.38575 188.925975 
L 449.77635 188.654175 
L 450.55755 188.654175 
L 452.11995 187.566975 
L 455.24475 187.566975 
L 456.02595 187.023375 
L 456.80715 187.023375 
L 457.19775 186.751575 
L 457.58835 186.751575 
L 458.36955 186.207975 
L 459.15075 186.207975 
L 459.93195 185.664375 
L 460.71315 185.664375 
L 461.10375 185.392575 
L 462.66615 185.392575 
L 463.05675 185.120775 
L 463.44735 185.120775 
L 465.00975 184.033575 
L 465.40035 184.033575 
L 466.57215 183.218175 
L 466.96275 183.218175 
L 468.52515 182.130975 
L 469.30635 182.130975 
L 470.08755 181.587375 
L 470.86875 181.587375 
L 471.25935 181.315575 
L 472.04055 181.315575 
L 472.43115 181.043775 
L 472.82175 181.043775 
L 473.21235 180.771975 
L 473.60295 180.771975 
L 473.99355 180.500175 
L 474.38415 180.500175 
L 475.16535 179.956575 
L 476.72775 179.956575 
L 477.11835 179.684775 
L 477.50895 179.684775 
L 478.29015 179.141175 
L 479.07135 179.141175 
L 480.63375 178.053975 
L 481.02435 178.053975 
L 481.02435 178.053975 
" style="fill:none;stroke:#ff0000;stroke-linecap:round;stroke-width:1.5;"/>
   </g>
   <g id="line2d_3">
    <path clip-path="url(#p24a5377d7f)" d="M 90.03375 287.589375 
L 94.72095 287.589375 
L 95.11155 287.317575 
L 97.06455 287.317575 
L 97.45515 287.045775 
L 101.75175 287.045775 
L 102.14235 286.773975 
L 109.95435 286.773975 
L 110.34495 286.502175 
L 112.68855 286.502175 
L 113.07915 286.230375 
L 113.86035 286.230375 
L 114.25095 285.958575 
L 115.03215 285.958575 
L 115.42275 285.686775 
L 115.81335 285.686775 
L 116.20395 285.414975 
L 121.28175 285.414975 
L 121.67235 285.143175 
L 125.57835 285.143175 
L 125.96895 284.871375 
L 127.53135 284.871375 
L 127.92195 284.599575 
L 129.09375 284.599575 
L 129.87495 284.055975 
L 131.82795 284.055975 
L 132.21855 283.784175 
L 136.90575 283.784175 
L 137.29635 283.512375 
L 138.85875 283.512375 
L 139.24935 283.240575 
L 139.63995 283.240575 
L 140.03055 282.968775 
L 143.15535 282.968775 
L 143.54595 282.696975 
L 147.84255 282.696975 
L 149.01435 281.881575 
L 149.79555 281.881575 
L 150.18615 281.609775 
L 152.52975 281.609775 
L 152.92035 281.337975 
L 154.09215 281.337975 
L 154.87335 280.794375 
L 155.26395 280.794375 
L 155.65455 280.522575 
L 156.43575 280.522575 
L 156.82635 280.250775 
L 157.21695 280.250775 
L 157.60755 279.978975 
L 158.77935 279.978975 
L 159.16995 279.707175 
L 160.34175 279.707175 
L 160.73235 279.435375 
L 161.12295 279.435375 
L 161.51355 279.163575 
L 162.29475 279.163575 
L 162.68535 278.891775 
L 163.07595 278.891775 
L 163.46655 278.619975 
L 165.41955 278.619975 
L 165.81015 278.348175 
L 166.20075 278.348175 
L 166.98195 277.804575 
L 168.93495 277.804575 
L 169.32555 277.532775 
L 169.71615 277.532775 
L 170.49735 276.989175 
L 170.88795 276.989175 
L 171.27855 276.717375 
L 171.66915 276.717375 
L 172.45035 276.173775 
L 173.62215 276.173775 
L 174.01275 275.901975 
L 176.74695 275.901975 
L 177.13755 275.630175 
L 177.91875 275.630175 
L 178.30935 275.358375 
L 178.69995 275.358375 
L 179.09055 275.086575 
L 179.87175 275.086575 
L 180.26235 274.814775 
L 182.21535 274.814775 
L 182.60595 274.542975 
L 182.99655 274.542975 
L 183.38715 274.271175 
L 183.77775 274.271175 
L 184.55895 273.727575 
L 186.12135 273.727575 
L 187.29315 272.912175 
L 191.19915 272.912175 
L 192.76155 271.824975 
L 193.54275 271.824975 
L 194.32395 271.281375 
L 194.71455 271.281375 
L 195.49575 270.737775 
L 195.88635 270.737775 
L 196.66755 270.194175 
L 197.44875 270.194175 
L 198.22995 269.650575 
L 199.01115 269.650575 
L 200.18295 268.835175 
L 200.57355 268.835175 
L 200.96415 268.563375 
L 204.47955 268.563375 
L 204.87015 268.291575 
L 205.65135 268.291575 
L 206.43255 267.747975 
L 206.82315 267.747975 
L 207.21375 267.476175 
L 207.60435 267.476175 
L 208.38555 266.932575 
L 208.77615 266.932575 
L 209.16675 266.660775 
L 211.90095 266.660775 
L 212.29155 266.388975 
L 213.46335 266.388975 
L 215.02575 265.301775 
L 216.58815 265.301775 
L 216.97875 265.029975 
L 218.54115 265.029975 
L 219.32235 264.486375 
L 219.71295 264.486375 
L 220.10355 264.214575 
L 220.49415 264.214575 
L 221.27535 263.670975 
L 223.22835 263.670975 
L 223.61895 263.399175 
L 224.00955 263.399175 
L 224.40015 263.127375 
L 225.18135 263.127375 
L 226.35315 262.311975 
L 227.13435 262.311975 
L 227.91555 261.768375 
L 229.86855 261.768375 
L 230.25915 261.496575 
L 231.04035 261.496575 
L 231.82155 260.952975 
L 232.60275 260.952975 
L 232.99335 260.681175 
L 233.77455 260.681175 
L 234.94635 259.865775 
L 237.68055 259.865775 
L 238.07115 259.593975 
L 238.85235 259.593975 
L 239.24295 259.322175 
L 239.63355 259.322175 
L 240.02415 259.050375 
L 240.41475 259.050375 
L 241.19595 258.506775 
L 242.36775 258.506775 
L 242.75835 258.234975 
L 244.71135 258.234975 
L 245.88315 257.419575 
L 247.83615 257.419575 
L 248.61735 256.875975 
L 250.96095 256.875975 
L 251.35155 256.604175 
L 252.13275 256.604175 
L 252.52335 256.332375 
L 253.69515 256.332375 
L 254.08575 256.060575 
L 254.86695 256.060575 
L 256.03875 255.245175 
L 256.42935 255.245175 
L 257.21055 254.701575 
L 259.55415 254.701575 
L 259.94475 254.429775 
L 263.06955 254.429775 
L 265.41315 252.798975 
L 265.80375 252.798975 
L 266.19435 252.527175 
L 267.36615 252.527175 
L 267.75675 252.255375 
L 268.53795 252.255375 
L 268.92855 251.983575 
L 269.31915 251.983575 
L 270.10035 251.439975 
L 270.49095 251.439975 
L 271.27215 250.896375 
L 272.44395 250.896375 
L 273.22515 250.352775 
L 273.61575 250.352775 
L 274.39695 249.809175 
L 275.17815 249.809175 
L 275.95935 249.265575 
L 276.34995 249.265575 
L 276.74055 248.993775 
L 277.52175 248.993775 
L 278.69355 248.178375 
L 279.47475 248.178375 
L 279.86535 247.906575 
L 280.64655 247.906575 
L 281.03715 247.634775 
L 281.81835 247.634775 
L 282.59955 247.091175 
L 283.38075 247.091175 
L 284.55255 246.275775 
L 285.72435 246.275775 
L 286.50555 245.732175 
L 288.45855 245.732175 
L 289.23975 245.188575 
L 291.97395 245.188575 
L 292.36455 244.916775 
L 294.70815 244.916775 
L 295.48935 244.373175 
L 295.87995 244.373175 
L 296.66115 243.829575 
L 297.44235 243.829575 
L 297.83295 243.557775 
L 298.22355 243.557775 
L 299.39535 242.742375 
L 299.78595 242.742375 
L 300.17655 242.470575 
L 300.56715 242.470575 
L 301.34835 241.926975 
L 302.12955 241.926975 
L 302.91075 241.383375 
L 304.47315 241.383375 
L 305.64495 240.567975 
L 306.03555 240.567975 
L 307.98855 239.208975 
L 309.94155 239.208975 
L 310.72275 238.665375 
L 311.89455 238.665375 
L 313.06635 237.849975 
L 314.23815 237.849975 
L 315.01935 237.306375 
L 316.58175 237.306375 
L 316.97235 237.034575 
L 317.36295 237.034575 
L 317.75355 236.762775 
L 318.53475 236.762775 
L 318.92535 236.490975 
L 319.31595 236.490975 
L 319.70655 236.219175 
L 320.48775 236.219175 
L 321.26895 235.675575 
L 321.65955 235.675575 
L 322.44075 235.131975 
L 322.83135 235.131975 
L 323.22195 234.860175 
L 323.61255 234.860175 
L 324.39375 234.316575 
L 325.17495 234.316575 
L 325.95615 233.772975 
L 326.34675 233.772975 
L 327.12795 233.229375 
L 327.90915 233.229375 
L 329.08095 232.413975 
L 329.86215 232.413975 
L 330.25275 232.142175 
L 330.64335 232.142175 
L 331.03395 231.870375 
L 331.42455 231.870375 
L 336.11175 228.608775 
L 337.67415 228.608775 
L 338.45535 228.065175 
L 338.84595 228.065175 
L 339.23655 227.793375 
L 340.01775 227.793375 
L 340.40835 227.521575 
L 340.79895 227.521575 
L 343.14255 225.890775 
L 345.09555 225.890775 
L 345.87675 225.347175 
L 347.04855 225.347175 
L 347.43915 225.075375 
L 347.82975 225.075375 
L 348.61095 224.531775 
L 351.73575 224.531775 
L 352.90755 223.716375 
L 353.29815 223.716375 
L 354.07935 223.172775 
L 354.46995 223.172775 
L 354.86055 222.900975 
L 355.25115 222.900975 
L 356.03235 222.357375 
L 356.81355 222.357375 
L 357.98535 221.541975 
L 359.54775 221.541975 
L 360.71955 220.726575 
L 361.11015 220.726575 
L 361.89135 220.182975 
L 362.67255 220.182975 
L 363.06315 219.911175 
L 363.84435 219.911175 
L 364.23495 219.639375 
L 364.62555 219.639375 
L 365.40675 219.095775 
L 365.79735 219.095775 
L 366.18795 218.823975 
L 366.96915 218.823975 
L 367.75035 218.280375 
L 368.92215 218.280375 
L 369.31275 218.008575 
L 371.26575 218.008575 
L 372.04695 217.464975 
L 372.43755 217.464975 
L 373.60935 216.649575 
L 374.39055 216.649575 
L 375.17175 216.105975 
L 375.56235 216.105975 
L 375.95295 215.834175 
L 376.34355 215.834175 
L 376.73415 215.562375 
L 377.12475 215.562375 
L 377.51535 215.290575 
L 378.68715 215.290575 
L 379.07775 215.018775 
L 380.64015 215.018775 
L 381.42135 214.475175 
L 382.20255 214.475175 
L 382.59315 214.203375 
L 383.76495 214.203375 
L 385.71795 212.844375 
L 387.28035 212.844375 
L 388.45215 212.028975 
L 390.79575 212.028975 
L 391.18635 211.757175 
L 391.96755 211.757175 
L 392.35815 211.485375 
L 393.13935 211.485375 
L 393.52995 211.213575 
L 394.31115 211.213575 
L 394.70175 210.941775 
L 395.09235 210.941775 
L 395.48295 210.669975 
L 396.65475 210.669975 
L 397.43595 210.126375 
L 399.38895 210.126375 
L 399.77955 209.854575 
L 400.17015 209.854575 
L 400.95135 209.310975 
L 401.73255 209.310975 
L 402.51375 208.767375 
L 403.68555 208.767375 
L 405.24795 207.680175 
L 405.63855 207.680175 
L 406.41975 207.136575 
L 406.81035 207.136575 
L 407.59155 206.592975 
L 408.37275 206.592975 
L 409.93515 205.505775 
L 411.88815 205.505775 
L 412.27875 205.233975 
L 413.84115 205.233975 
L 414.23175 204.962175 
L 414.62235 204.962175 
L 415.01295 204.690375 
L 415.40355 204.690375 
L 416.18475 204.146775 
L 417.35655 204.146775 
L 418.13775 203.603175 
L 418.91895 203.603175 
L 419.30955 203.331375 
L 419.70015 203.331375 
L 420.09075 203.059575 
L 420.87195 203.059575 
L 422.04375 202.244175 
L 423.21555 202.244175 
L 423.99675 201.700575 
L 424.38735 201.700575 
L 425.55915 200.885175 
L 425.94975 200.885175 
L 426.34035 200.613375 
L 427.51215 200.613375 
L 427.90275 200.341575 
L 428.29335 200.341575 
L 428.68395 200.069775 
L 430.63695 200.069775 
L 431.02755 199.797975 
L 431.41815 199.797975 
L 432.98055 198.710775 
L 433.37115 198.710775 
L 433.76175 198.438975 
L 434.54295 198.438975 
L 434.93355 198.167175 
L 436.88655 198.167175 
L 437.66775 197.623575 
L 439.62075 197.623575 
L 440.01135 197.351775 
L 440.40195 197.351775 
L 440.79255 197.079975 
L 441.96435 197.079975 
L 442.35495 196.808175 
L 442.74555 196.808175 
L 443.52675 196.264575 
L 444.30795 196.264575 
L 444.69855 195.992775 
L 445.08915 195.992775 
L 445.47975 195.720975 
L 445.87035 195.720975 
L 448.99515 193.546575 
L 449.77635 193.546575 
L 450.16695 193.274775 
L 450.55755 193.274775 
L 450.94815 193.002975 
L 451.33875 193.002975 
L 452.90115 191.915775 
L 453.68235 191.915775 
L 454.85415 191.100375 
L 455.24475 191.100375 
L 457.19775 189.741375 
L 457.97895 189.741375 
L 458.36955 189.469575 
L 459.15075 189.469575 
L 459.54135 189.197775 
L 460.32255 189.197775 
L 460.71315 188.925975 
L 461.49435 188.925975 
L 461.88495 188.654175 
L 462.66615 188.654175 
L 463.83795 187.838775 
L 464.22855 187.838775 
L 464.61915 187.566975 
L 465.00975 187.566975 
L 465.40035 187.295175 
L 465.79095 187.295175 
L 466.18155 187.023375 
L 466.57215 187.023375 
L 466.96275 186.751575 
L 467.35335 186.751575 
L 468.52515 185.936175 
L 468.91575 185.936175 
L 470.08755 185.120775 
L 470.47815 185.120775 
L 472.43115 183.761775 
L 474.38415 183.761775 
L 474.77475 183.489975 
L 475.16535 183.489975 
L 477.11835 182.130975 
L 477.50895 182.130975 
L 478.68075 181.315575 
L 479.85255 181.315575 
L 481.02435 180.500175 
L 481.02435 180.500175 
" style="fill:none;stroke:#ff0000;stroke-linecap:round;stroke-width:1.5;"/>
   </g>
   <g id="line2d_4">
    <path clip-path="url(#p24a5377d7f)" d="M 90.03375 287.589375 
L 103.31415 287.589375 
L 104.09535 287.045775 
L 119.32875 287.045775 
L 119.71935 286.773975 
L 125.96895 286.773975 
L 126.35955 286.502175 
L 145.10835 286.502175 
L 145.49895 286.230375 
L 148.62375 286.230375 
L 149.01435 285.958575 
L 150.18615 285.958575 
L 150.57675 285.686775 
L 153.31095 285.686775 
L 153.70155 285.414975 
L 154.87335 285.414975 
L 155.26395 285.143175 
L 158.38875 285.143175 
L 159.16995 284.599575 
L 161.51355 284.599575 
L 161.90415 284.327775 
L 163.07595 284.327775 
L 163.46655 284.055975 
L 165.81015 284.055975 
L 166.59135 283.512375 
L 166.98195 283.512375 
L 167.37255 283.240575 
L 169.32555 283.240575 
L 169.71615 282.968775 
L 173.23155 282.968775 
L 173.62215 282.696975 
L 176.74695 282.696975 
L 177.13755 282.425175 
L 178.69995 282.425175 
L 179.09055 282.153375 
L 180.65295 282.153375 
L 181.43415 281.609775 
L 182.21535 281.609775 
L 182.60595 281.337975 
L 183.77775 281.337975 
L 184.16835 281.066175 
L 190.41795 281.066175 
L 190.80855 280.794375 
L 191.19915 280.794375 
L 191.98035 280.250775 
L 192.37095 280.250775 
L 193.15215 279.707175 
L 195.10515 279.707175 
L 196.27695 278.891775 
L 198.62055 278.891775 
L 199.01115 278.619975 
L 200.57355 278.619975 
L 201.35475 278.076375 
L 202.52655 278.076375 
L 202.91715 277.804575 
L 203.30775 277.804575 
L 203.69835 277.532775 
L 205.26075 277.532775 
L 206.82315 276.445575 
L 208.38555 276.445575 
L 209.16675 275.901975 
L 209.55735 275.901975 
L 210.33855 275.358375 
L 211.11975 275.358375 
L 211.51035 275.086575 
L 214.24455 275.086575 
L 214.63515 274.814775 
L 216.97875 274.814775 
L 217.36935 274.542975 
L 220.88475 274.542975 
L 221.66595 273.999375 
L 222.44715 273.999375 
L 222.83775 273.727575 
L 223.22835 273.727575 
L 224.00955 273.183975 
L 224.40015 273.183975 
L 225.18135 272.640375 
L 227.13435 272.640375 
L 227.52495 272.368575 
L 230.64975 272.368575 
L 231.82155 271.553175 
L 235.33695 271.553175 
L 235.72755 271.281375 
L 238.85235 271.281375 
L 240.41475 270.194175 
L 241.19595 270.194175 
L 242.75835 269.106975 
L 243.53955 269.106975 
L 243.93015 268.835175 
L 245.88315 268.835175 
L 246.27375 268.563375 
L 247.83615 268.563375 
L 248.61735 268.019775 
L 250.57035 268.019775 
L 250.96095 267.747975 
L 251.35155 267.747975 
L 252.13275 267.204375 
L 253.30455 267.204375 
L 254.08575 266.660775 
L 254.86695 266.660775 
L 256.03875 265.845375 
L 256.42935 265.845375 
L 257.99175 264.758175 
L 259.16355 264.758175 
L 259.55415 264.486375 
L 259.94475 264.486375 
L 260.33535 264.214575 
L 261.89775 264.214575 
L 262.67895 263.670975 
L 263.85075 263.670975 
L 264.24135 263.399175 
L 264.63195 263.399175 
L 265.02255 263.127375 
L 265.80375 263.127375 
L 266.58495 262.583775 
L 267.36615 262.583775 
L 267.75675 262.311975 
L 268.14735 262.311975 
L 268.53795 262.040175 
L 270.10035 262.040175 
L 270.49095 261.768375 
L 270.88155 261.768375 
L 271.27215 261.496575 
L 271.66275 261.496575 
L 272.05335 261.224775 
L 274.39695 261.224775 
L 274.78755 260.952975 
L 275.17815 260.952975 
L 276.74055 259.865775 
L 277.52175 259.865775 
L 277.91235 259.593975 
L 279.08415 259.593975 
L 279.47475 259.322175 
L 281.42775 259.322175 
L 281.81835 259.050375 
L 283.38075 259.050375 
L 283.77135 258.778575 
L 284.16195 258.778575 
L 284.55255 258.506775 
L 284.94315 258.506775 
L 285.33375 258.234975 
L 285.72435 258.234975 
L 286.89615 257.419575 
L 288.06795 257.419575 
L 289.23975 256.604175 
L 291.58335 256.604175 
L 291.97395 256.332375 
L 292.36455 256.332375 
L 293.92695 255.245175 
L 294.31755 255.245175 
L 294.70815 254.973375 
L 295.09875 254.973375 
L 295.48935 254.701575 
L 296.27055 254.701575 
L 297.05175 254.157975 
L 297.44235 254.157975 
L 298.61415 253.342575 
L 299.00475 253.342575 
L 299.39535 253.070775 
L 300.17655 253.070775 
L 300.56715 252.798975 
L 300.95775 252.798975 
L 301.73895 252.255375 
L 302.12955 252.255375 
L 302.91075 251.711775 
L 305.64495 251.711775 
L 306.03555 251.439975 
L 307.59795 251.439975 
L 308.37915 250.896375 
L 309.55095 250.896375 
L 310.33215 250.352775 
L 315.01935 250.352775 
L 315.40995 250.080975 
L 315.80055 250.080975 
L 316.58175 249.537375 
L 318.53475 249.537375 
L 318.92535 249.265575 
L 320.09715 249.265575 
L 320.87835 248.721975 
L 321.65955 248.721975 
L 322.44075 248.178375 
L 323.22195 248.178375 
L 323.61255 247.906575 
L 324.78435 247.906575 
L 325.17495 247.634775 
L 325.95615 247.634775 
L 327.12795 246.819375 
L 328.29975 246.819375 
L 328.69035 246.547575 
L 329.47155 246.547575 
L 329.86215 246.275775 
L 331.42455 246.275775 
L 332.59635 245.460375 
L 332.98695 245.460375 
L 333.37755 245.188575 
L 334.54935 245.188575 
L 335.33055 244.644975 
L 335.72115 244.644975 
L 336.11175 244.373175 
L 336.89295 244.373175 
L 338.06475 243.557775 
L 340.40835 243.557775 
L 341.97075 242.470575 
L 343.92375 242.470575 
L 344.70495 241.926975 
L 345.48615 241.926975 
L 345.87675 241.655175 
L 346.26735 241.655175 
L 346.65795 241.383375 
L 350.17335 241.383375 
L 350.56395 241.111575 
L 351.34515 241.111575 
L 352.12635 240.567975 
L 352.51695 240.567975 
L 353.29815 240.024375 
L 354.46995 240.024375 
L 355.25115 239.480775 
L 355.64175 239.480775 
L 356.42295 238.937175 
L 356.81355 238.937175 
L 357.20415 238.665375 
L 359.54775 238.665375 
L 359.93835 238.393575 
L 361.11015 238.393575 
L 361.50075 238.121775 
L 363.06315 238.121775 
L 364.62555 237.034575 
L 365.01615 237.034575 
L 366.18795 236.219175 
L 366.57855 236.219175 
L 368.14095 235.131975 
L 368.53155 235.131975 
L 368.92215 234.860175 
L 371.65635 234.860175 
L 372.04695 234.588375 
L 372.43755 234.588375 
L 372.82815 234.316575 
L 373.99995 234.316575 
L 374.39055 234.044775 
L 376.34355 234.044775 
L 376.73415 233.772975 
L 378.29655 233.772975 
L 378.68715 233.501175 
L 379.07775 233.501175 
L 379.85895 232.957575 
L 380.24955 232.957575 
L 380.64015 232.685775 
L 381.03075 232.685775 
L 381.42135 232.413975 
L 383.37435 232.413975 
L 383.76495 232.142175 
L 384.15555 232.142175 
L 384.54615 231.870375 
L 384.93675 231.870375 
L 385.71795 231.326775 
L 387.67095 231.326775 
L 388.06155 231.054975 
L 388.84275 231.054975 
L 389.62395 230.511375 
L 390.40515 230.511375 
L 391.18635 229.967775 
L 391.96755 229.967775 
L 392.74875 229.424175 
L 393.52995 229.424175 
L 393.92055 229.152375 
L 394.31115 229.152375 
L 394.70175 228.880575 
L 395.48295 228.880575 
L 396.65475 228.065175 
L 397.04535 228.065175 
L 397.43595 227.793375 
L 398.60775 227.793375 
L 399.38895 227.249775 
L 400.17015 227.249775 
L 400.56075 226.977975 
L 401.34195 226.977975 
L 401.73255 226.706175 
L 402.12315 226.706175 
L 402.51375 226.434375 
L 402.90435 226.434375 
L 403.68555 225.890775 
L 404.85735 225.890775 
L 406.02915 225.075375 
L 406.81035 225.075375 
L 407.20095 224.803575 
L 408.76335 224.803575 
L 409.93515 223.988175 
L 411.10695 223.988175 
L 411.49755 223.716375 
L 411.88815 223.716375 
L 412.27875 223.444575 
L 412.66935 223.444575 
L 413.05995 223.172775 
L 413.45055 223.172775 
L 414.62235 222.357375 
L 416.57535 222.357375 
L 416.96595 222.085575 
L 418.13775 222.085575 
L 418.52835 221.813775 
L 418.91895 221.813775 
L 419.30955 221.541975 
L 420.48135 221.541975 
L 420.87195 221.270175 
L 422.04375 221.270175 
L 422.82495 220.726575 
L 423.60615 220.726575 
L 423.99675 220.454775 
L 424.38735 220.454775 
L 424.77795 220.182975 
L 426.34035 220.182975 
L 426.73095 219.911175 
L 427.12155 219.911175 
L 427.90275 219.367575 
L 428.29335 219.367575 
L 428.68395 219.095775 
L 431.02755 219.095775 
L 432.19935 218.280375 
L 432.98055 218.280375 
L 434.54295 217.193175 
L 436.10535 217.193175 
L 436.49595 216.921375 
L 437.27715 216.921375 
L 438.44895 216.105975 
L 438.83955 216.105975 
L 439.62075 215.562375 
L 440.40195 215.562375 
L 440.79255 215.290575 
L 441.57375 215.290575 
L 442.35495 214.746975 
L 443.52675 214.746975 
L 443.91735 214.475175 
L 444.30795 214.475175 
L 444.69855 214.203375 
L 445.08915 214.203375 
L 445.47975 213.931575 
L 445.87035 213.931575 
L 447.43275 212.844375 
L 448.60455 212.844375 
L 448.99515 212.572575 
L 449.38575 212.572575 
L 449.77635 212.300775 
L 450.94815 212.300775 
L 451.33875 212.028975 
L 451.72935 212.028975 
L 452.11995 211.757175 
L 452.51055 211.757175 
L 453.68235 210.941775 
L 457.58835 210.941775 
L 457.97895 210.669975 
L 458.36955 210.669975 
L 459.15075 210.126375 
L 459.93195 210.126375 
L 460.32255 209.854575 
L 461.49435 209.854575 
L 462.66615 209.039175 
L 463.44735 209.039175 
L 464.61915 208.223775 
L 465.00975 208.223775 
L 465.40035 207.951975 
L 466.57215 207.951975 
L 466.96275 207.680175 
L 467.74395 207.680175 
L 468.13455 207.408375 
L 468.52515 207.408375 
L 468.91575 207.136575 
L 469.69695 207.136575 
L 470.08755 206.864775 
L 471.25935 206.864775 
L 471.64995 206.592975 
L 472.82175 206.592975 
L 473.21235 206.321175 
L 473.60295 206.321175 
L 473.99355 206.049375 
L 475.16535 206.049375 
L 475.94655 205.505775 
L 477.11835 205.505775 
L 477.50895 205.233975 
L 477.89955 205.233975 
L 478.29015 204.962175 
L 478.68075 204.962175 
L 479.46195 204.418575 
L 480.63375 204.418575 
L 481.02435 204.146775 
L 481.02435 204.146775 
" style="fill:none;stroke:#000000;stroke-linecap:round;stroke-width:1.5;"/>
   </g>
   <g id="line2d_5">
    <path clip-path="url(#p24a5377d7f)" d="M 90.03375 287.589375 
L 97.84575 287.589375 
L 98.23635 287.317575 
L 100.97055 287.317575 
L 101.36115 287.045775 
L 106.04835 287.045775 
L 106.43895 286.773975 
L 111.12615 286.773975 
L 111.51675 286.502175 
L 111.90735 286.502175 
L 112.29795 286.230375 
L 113.46975 286.230375 
L 113.86035 285.958575 
L 115.03215 285.958575 
L 115.81335 285.414975 
L 116.59455 285.414975 
L 116.98515 285.143175 
L 118.15695 285.143175 
L 118.54755 284.871375 
L 119.32875 284.871375 
L 119.71935 284.599575 
L 120.10995 284.599575 
L 120.89115 284.055975 
L 122.45355 284.055975 
L 122.84415 283.784175 
L 124.40655 283.784175 
L 124.79715 283.512375 
L 125.96895 283.512375 
L 126.75015 282.968775 
L 127.14075 282.968775 
L 127.53135 282.696975 
L 139.63995 282.696975 
L 140.03055 282.425175 
L 141.98355 282.425175 
L 142.76475 281.881575 
L 143.93655 281.881575 
L 144.32715 281.609775 
L 145.10835 281.609775 
L 145.49895 281.337975 
L 146.28015 281.337975 
L 146.67075 281.066175 
L 147.45195 281.066175 
L 147.84255 280.794375 
L 149.01435 280.794375 
L 149.40495 280.522575 
L 151.35795 280.522575 
L 152.52975 279.707175 
L 154.87335 279.707175 
L 155.26395 279.435375 
L 155.65455 279.435375 
L 156.43575 278.891775 
L 157.99815 278.891775 
L 158.77935 278.348175 
L 161.51355 278.348175 
L 161.90415 278.076375 
L 162.29475 278.076375 
L 163.07595 277.532775 
L 164.24775 277.532775 
L 164.63835 277.260975 
L 165.81015 277.260975 
L 166.20075 276.989175 
L 167.76315 276.989175 
L 168.15375 276.717375 
L 168.54435 276.717375 
L 168.93495 276.445575 
L 170.10675 276.445575 
L 170.49735 276.173775 
L 170.88795 276.173775 
L 171.27855 275.901975 
L 172.05975 275.901975 
L 172.45035 275.630175 
L 172.84095 275.630175 
L 173.23155 275.358375 
L 174.01275 275.358375 
L 175.18455 274.542975 
L 175.57515 274.542975 
L 175.96575 274.271175 
L 177.13755 274.271175 
L 178.69995 273.183975 
L 179.09055 273.183975 
L 179.87175 272.640375 
L 180.65295 272.640375 
L 181.04355 272.368575 
L 182.21535 272.368575 
L 182.60595 272.096775 
L 184.55895 272.096775 
L 184.94955 271.824975 
L 186.51195 271.824975 
L 186.90255 271.553175 
L 191.58975 271.553175 
L 191.98035 271.281375 
L 193.54275 271.281375 
L 193.93335 271.009575 
L 194.32395 271.009575 
L 195.10515 270.465975 
L 196.27695 270.465975 
L 196.66755 270.194175 
L 197.05815 270.194175 
L 197.44875 269.922375 
L 200.96415 269.922375 
L 201.35475 269.650575 
L 202.91715 269.650575 
L 203.30775 269.378775 
L 204.08895 269.378775 
L 204.47955 269.106975 
L 206.82315 269.106975 
L 207.21375 268.835175 
L 211.90095 268.835175 
L 212.29155 268.563375 
L 212.68215 268.563375 
L 213.07275 268.291575 
L 214.24455 268.291575 
L 214.63515 268.019775 
L 215.02575 268.019775 
L 215.41635 267.747975 
L 218.54115 267.747975 
L 218.93175 267.476175 
L 221.27535 267.476175 
L 221.66595 267.204375 
L 224.40015 267.204375 
L 224.79075 266.932575 
L 225.96255 266.932575 
L 226.35315 266.660775 
L 226.74375 266.660775 
L 227.91555 265.845375 
L 229.08735 265.845375 
L 229.47795 265.573575 
L 230.25915 265.573575 
L 231.82155 264.486375 
L 234.16515 264.486375 
L 234.55575 264.214575 
L 235.33695 264.214575 
L 236.50875 263.399175 
L 238.07115 263.399175 
L 238.85235 262.855575 
L 239.24295 262.855575 
L 239.63355 262.583775 
L 240.80535 262.583775 
L 241.58655 262.040175 
L 241.97715 262.040175 
L 242.36775 261.768375 
L 246.27375 261.768375 
L 246.66435 261.496575 
L 247.83615 261.496575 
L 248.22675 261.224775 
L 249.39855 261.224775 
L 249.78915 260.952975 
L 250.96095 260.952975 
L 251.35155 260.681175 
L 252.52335 260.681175 
L 252.91395 260.409375 
L 253.69515 260.409375 
L 254.08575 260.137575 
L 255.25755 260.137575 
L 256.03875 259.593975 
L 259.55415 259.593975 
L 259.94475 259.322175 
L 262.67895 259.322175 
L 263.46015 258.778575 
L 263.85075 258.778575 
L 265.02255 257.963175 
L 266.19435 257.963175 
L 266.58495 257.691375 
L 266.97555 257.691375 
L 267.36615 257.419575 
L 267.75675 257.419575 
L 268.53795 256.875975 
L 270.10035 256.875975 
L 270.49095 256.604175 
L 270.88155 256.604175 
L 271.27215 256.332375 
L 272.83455 256.332375 
L 273.22515 256.060575 
L 275.17815 256.060575 
L 275.56875 255.788775 
L 277.13115 255.788775 
L 277.52175 255.516975 
L 277.91235 255.516975 
L 278.30295 255.245175 
L 279.47475 255.245175 
L 280.25595 254.701575 
L 282.20895 254.701575 
L 282.59955 254.429775 
L 282.99015 254.429775 
L 283.38075 254.157975 
L 286.11495 254.157975 
L 286.50555 253.886175 
L 288.06795 253.886175 
L 289.23975 253.070775 
L 291.19275 253.070775 
L 292.36455 252.255375 
L 293.92695 252.255375 
L 294.31755 251.983575 
L 295.09875 251.983575 
L 295.87995 251.439975 
L 296.66115 251.439975 
L 297.05175 251.168175 
L 297.83295 251.168175 
L 299.78595 249.809175 
L 301.34835 249.809175 
L 302.12955 249.265575 
L 303.69195 249.265575 
L 304.47315 248.721975 
L 304.86375 248.721975 
L 305.25435 248.450175 
L 306.03555 248.450175 
L 306.81675 247.906575 
L 309.55095 247.906575 
L 310.33215 247.362975 
L 311.11335 247.362975 
L 311.50395 247.091175 
L 315.40995 247.091175 
L 315.80055 246.819375 
L 317.36295 246.819375 
L 317.75355 246.547575 
L 320.87835 246.547575 
L 321.26895 246.275775 
L 322.05015 246.275775 
L 322.44075 246.003975 
L 323.61255 246.003975 
L 324.00315 245.732175 
L 325.17495 245.732175 
L 325.56555 245.460375 
L 327.12795 245.460375 
L 327.51855 245.188575 
L 328.29975 245.188575 
L 328.69035 244.916775 
L 329.08095 244.916775 
L 330.64335 243.829575 
L 331.03395 243.829575 
L 331.81515 243.285975 
L 334.15875 243.285975 
L 334.54935 243.014175 
L 334.93995 243.014175 
L 335.33055 242.742375 
L 336.89295 242.742375 
L 337.67415 242.198775 
L 338.45535 242.198775 
L 338.84595 241.926975 
L 343.92375 241.926975 
L 344.31435 241.655175 
L 345.09555 241.655175 
L 345.48615 241.383375 
L 346.26735 241.383375 
L 346.65795 241.111575 
L 347.04855 241.111575 
L 347.43915 240.839775 
L 347.82975 240.839775 
L 348.22035 240.567975 
L 348.61095 240.567975 
L 349.78275 239.752575 
L 351.34515 239.752575 
L 351.73575 239.480775 
L 352.12635 239.480775 
L 352.51695 239.208975 
L 353.29815 239.208975 
L 353.68875 238.937175 
L 354.07935 238.937175 
L 354.46995 238.665375 
L 356.03235 238.665375 
L 356.42295 238.393575 
L 358.76655 238.393575 
L 359.15715 238.121775 
L 359.93835 238.121775 
L 360.32895 237.849975 
L 361.89135 237.849975 
L 362.28195 237.578175 
L 364.62555 237.578175 
L 365.40675 237.034575 
L 365.79735 237.034575 
L 366.18795 236.762775 
L 366.57855 236.762775 
L 367.35975 236.219175 
L 368.14095 236.219175 
L 368.53155 235.947375 
L 368.92215 235.947375 
L 369.70335 235.403775 
L 370.09395 235.403775 
L 370.48455 235.131975 
L 372.04695 235.131975 
L 372.43755 234.860175 
L 373.99995 234.860175 
L 374.39055 234.588375 
L 376.34355 234.588375 
L 376.73415 234.316575 
L 378.29655 234.316575 
L 379.07775 233.772975 
L 380.24955 233.772975 
L 380.64015 233.501175 
L 381.03075 233.501175 
L 381.42135 233.229375 
L 382.59315 233.229375 
L 384.15555 232.142175 
L 385.71795 232.142175 
L 386.10855 231.870375 
L 386.49915 231.870375 
L 386.88975 231.598575 
L 388.45215 231.598575 
L 389.62395 230.783175 
L 390.40515 230.783175 
L 390.79575 230.511375 
L 392.35815 230.511375 
L 393.92055 229.424175 
L 394.70175 229.424175 
L 395.09235 229.152375 
L 395.87355 229.152375 
L 396.26415 228.880575 
L 396.65475 228.880575 
L 397.04535 228.608775 
L 397.43595 228.608775 
L 397.82655 228.336975 
L 398.99835 228.336975 
L 399.38895 228.065175 
L 400.56075 228.065175 
L 401.34195 227.521575 
L 402.12315 227.521575 
L 402.51375 227.249775 
L 403.68555 227.249775 
L 404.46675 226.706175 
L 404.85735 226.706175 
L 405.24795 226.434375 
L 406.02915 226.434375 
L 406.41975 226.162575 
L 408.37275 226.162575 
L 409.15395 225.618975 
L 409.54455 225.618975 
L 409.93515 225.347175 
L 410.32575 225.347175 
L 410.71635 225.075375 
L 411.49755 225.075375 
L 411.88815 224.803575 
L 413.05995 224.803575 
L 413.45055 224.531775 
L 414.23175 224.531775 
L 415.01295 223.988175 
L 417.74715 223.988175 
L 418.13775 223.716375 
L 419.70015 223.716375 
L 420.09075 223.444575 
L 422.04375 223.444575 
L 423.21555 222.629175 
L 423.60615 222.629175 
L 424.38735 222.085575 
L 425.55915 222.085575 
L 425.94975 221.813775 
L 428.68395 221.813775 
L 429.07455 221.541975 
L 429.46515 221.541975 
L 430.24635 220.998375 
L 431.41815 220.998375 
L 431.80875 220.726575 
L 432.58995 220.726575 
L 432.98055 220.454775 
L 434.15235 220.454775 
L 434.54295 220.182975 
L 434.93355 220.182975 
L 435.32415 219.911175 
L 435.71475 219.911175 
L 436.10535 219.639375 
L 436.49595 219.639375 
L 436.88655 219.367575 
L 437.27715 219.367575 
L 437.66775 219.095775 
L 438.44895 219.095775 
L 438.83955 218.823975 
L 439.23015 218.823975 
L 439.62075 218.552175 
L 440.79255 218.552175 
L 441.18315 218.280375 
L 441.57375 218.280375 
L 441.96435 218.008575 
L 443.91735 218.008575 
L 444.30795 217.736775 
L 446.65155 217.736775 
L 447.04215 217.464975 
L 450.94815 217.464975 
L 452.90115 216.105975 
L 453.29175 216.105975 
L 454.07295 215.562375 
L 456.41655 215.562375 
L 456.80715 215.290575 
L 457.19775 215.290575 
L 457.97895 214.746975 
L 459.54135 214.746975 
L 459.93195 214.475175 
L 460.32255 214.475175 
L 460.71315 214.203375 
L 462.27555 214.203375 
L 462.66615 213.931575 
L 463.05675 213.931575 
L 463.83795 213.387975 
L 465.00975 213.387975 
L 465.79095 212.844375 
L 466.18155 212.844375 
L 466.57215 212.572575 
L 467.35335 212.572575 
L 467.74395 212.300775 
L 468.13455 212.300775 
L 468.52515 212.028975 
L 468.91575 212.028975 
L 470.08755 211.213575 
L 471.64995 211.213575 
L 472.04055 210.941775 
L 473.60295 210.941775 
L 473.99355 210.669975 
L 474.77475 210.669975 
L 475.16535 210.398175 
L 475.55595 210.398175 
L 476.33715 209.854575 
L 477.89955 209.854575 
L 478.68075 209.310975 
L 481.02435 209.310975 
L 481.02435 209.310975 
" style="fill:none;stroke:#000000;stroke-linecap:round;stroke-width:1.5;"/>
   </g>
   <g id="line2d_6">
    <path clip-path="url(#p24a5377d7f)" d="M 90.03375 287.589375 
L 92.37735 287.589375 
L 92.76795 287.317575 
L 93.54915 287.317575 
L 93.93975 287.045775 
L 97.06455 287.045775 
L 97.45515 286.773975 
L 106.04835 286.773975 
L 106.43895 286.502175 
L 108.00135 286.502175 
L 108.39195 286.230375 
L 108.78255 286.230375 
L 109.17315 285.958575 
L 111.51675 285.958575 
L 111.90735 285.686775 
L 113.46975 285.686775 
L 113.86035 285.414975 
L 115.42275 285.414975 
L 115.81335 285.143175 
L 116.98515 285.143175 
L 117.76635 284.599575 
L 118.15695 284.599575 
L 118.54755 284.327775 
L 120.50055 284.327775 
L 121.67235 283.512375 
L 122.45355 283.512375 
L 122.84415 283.240575 
L 124.01595 283.240575 
L 124.40655 282.968775 
L 125.96895 282.968775 
L 126.35955 282.696975 
L 127.14075 282.696975 
L 127.53135 282.425175 
L 129.09375 282.425175 
L 129.48435 282.153375 
L 131.43735 282.153375 
L 132.21855 281.609775 
L 133.78095 281.609775 
L 134.17155 281.337975 
L 134.56215 281.337975 
L 134.95275 281.066175 
L 136.12455 281.066175 
L 136.51515 280.794375 
L 136.90575 280.794375 
L 137.29635 280.522575 
L 138.85875 280.522575 
L 139.63995 279.978975 
L 140.42115 279.978975 
L 140.81175 279.707175 
L 141.20235 279.707175 
L 141.98355 279.163575 
L 143.54595 279.163575 
L 143.93655 278.891775 
L 144.32715 278.891775 
L 145.10835 278.348175 
L 148.23315 278.348175 
L 148.62375 278.076375 
L 149.79555 278.076375 
L 150.57675 277.532775 
L 153.70155 277.532775 
L 154.09215 277.260975 
L 156.82635 277.260975 
L 157.21695 276.989175 
L 158.38875 276.989175 
L 158.77935 276.717375 
L 159.16995 276.717375 
L 159.56055 276.445575 
L 159.95115 276.445575 
L 160.34175 276.173775 
L 160.73235 276.173775 
L 161.12295 275.901975 
L 165.02895 275.901975 
L 165.41955 275.630175 
L 166.98195 275.630175 
L 167.37255 275.358375 
L 168.54435 275.358375 
L 169.71615 274.542975 
L 172.45035 274.542975 
L 173.62215 273.727575 
L 174.01275 273.727575 
L 174.40335 273.455775 
L 174.79395 273.455775 
L 175.18455 273.183975 
L 176.35635 273.183975 
L 177.13755 272.640375 
L 178.30935 272.640375 
L 178.69995 272.368575 
L 182.21535 272.368575 
L 182.60595 272.096775 
L 184.16835 272.096775 
L 184.55895 271.824975 
L 186.12135 271.824975 
L 187.29315 271.009575 
L 189.24615 271.009575 
L 189.63675 270.737775 
L 190.02735 270.737775 
L 190.41795 270.465975 
L 190.80855 270.465975 
L 191.19915 270.194175 
L 191.58975 270.194175 
L 191.98035 269.922375 
L 193.54275 269.922375 
L 194.32395 269.378775 
L 194.71455 269.378775 
L 195.49575 268.835175 
L 196.27695 268.835175 
L 197.05815 268.291575 
L 197.83935 268.291575 
L 198.22995 268.019775 
L 199.40175 268.019775 
L 199.79235 267.747975 
L 202.52655 267.747975 
L 202.91715 267.476175 
L 203.30775 267.476175 
L 203.69835 267.204375 
L 206.82315 267.204375 
L 207.60435 266.660775 
L 209.16675 266.660775 
L 209.55735 266.388975 
L 210.33855 266.388975 
L 211.51035 265.573575 
L 211.90095 265.573575 
L 212.29155 265.301775 
L 215.41635 265.301775 
L 215.80695 265.029975 
L 216.19755 265.029975 
L 216.58815 264.758175 
L 216.97875 264.758175 
L 217.36935 264.486375 
L 219.71295 264.486375 
L 220.49415 263.942775 
L 220.88475 263.942775 
L 221.27535 263.670975 
L 222.44715 263.670975 
L 223.22835 263.127375 
L 223.61895 263.127375 
L 224.00955 262.855575 
L 225.18135 262.855575 
L 225.57195 262.583775 
L 226.35315 262.583775 
L 226.74375 262.311975 
L 228.30615 262.311975 
L 229.08735 261.768375 
L 235.33695 261.768375 
L 235.72755 261.496575 
L 236.89935 261.496575 
L 237.28995 261.224775 
L 238.46175 261.224775 
L 239.63355 260.409375 
L 240.80535 260.409375 
L 241.19595 260.137575 
L 243.93015 260.137575 
L 244.71135 259.593975 
L 245.49255 259.593975 
L 246.27375 259.050375 
L 246.66435 259.050375 
L 247.05495 258.778575 
L 247.44555 258.778575 
L 247.83615 258.506775 
L 248.22675 258.506775 
L 248.61735 258.234975 
L 249.39855 258.234975 
L 250.17975 257.691375 
L 250.57035 257.691375 
L 250.96095 257.419575 
L 254.08575 257.419575 
L 254.86695 256.875975 
L 255.25755 256.875975 
L 256.03875 256.332375 
L 256.81995 256.332375 
L 257.99175 255.516975 
L 259.55415 255.516975 
L 260.33535 254.973375 
L 262.67895 254.973375 
L 263.46015 254.429775 
L 264.63195 254.429775 
L 265.02255 254.157975 
L 267.75675 254.157975 
L 268.14735 253.886175 
L 268.92855 253.886175 
L 269.70975 253.342575 
L 271.66275 253.342575 
L 273.22515 252.255375 
L 273.61575 252.255375 
L 274.00635 251.983575 
L 274.78755 251.983575 
L 275.17815 251.711775 
L 276.34995 251.711775 
L 276.74055 251.439975 
L 277.52175 251.439975 
L 277.91235 251.168175 
L 279.86535 251.168175 
L 280.64655 250.624575 
L 281.42775 250.624575 
L 281.81835 250.352775 
L 282.20895 250.352775 
L 282.59955 250.080975 
L 283.38075 250.080975 
L 283.77135 249.809175 
L 284.16195 249.809175 
L 284.55255 249.537375 
L 286.11495 249.537375 
L 286.50555 249.265575 
L 289.63035 249.265575 
L 290.41155 248.721975 
L 290.80215 248.721975 
L 291.19275 248.450175 
L 291.58335 248.450175 
L 291.97395 248.178375 
L 292.36455 248.178375 
L 292.75515 247.906575 
L 293.14575 247.906575 
L 293.53635 247.634775 
L 295.09875 247.634775 
L 295.48935 247.362975 
L 296.27055 247.362975 
L 296.66115 247.091175 
L 299.00475 247.091175 
L 299.78595 246.547575 
L 300.17655 246.547575 
L 300.56715 246.275775 
L 305.25435 246.275775 
L 305.64495 246.003975 
L 306.42615 246.003975 
L 306.81675 245.732175 
L 307.98855 245.732175 
L 308.76975 245.188575 
L 309.55095 245.188575 
L 310.33215 244.644975 
L 311.11335 244.644975 
L 311.50395 244.373175 
L 311.89455 244.373175 
L 313.45695 243.285975 
L 315.40995 243.285975 
L 316.58175 242.470575 
L 318.53475 242.470575 
L 318.92535 242.198775 
L 320.09715 242.198775 
L 320.87835 241.655175 
L 321.65955 241.655175 
L 322.05015 241.383375 
L 323.22195 241.383375 
L 324.00315 240.839775 
L 325.17495 240.839775 
L 325.95615 240.296175 
L 326.34675 240.296175 
L 326.73735 240.024375 
L 327.51855 240.024375 
L 328.29975 239.480775 
L 329.86215 239.480775 
L 330.25275 239.208975 
L 330.64335 239.208975 
L 331.03395 238.937175 
L 331.42455 238.937175 
L 331.81515 238.665375 
L 333.76815 238.665375 
L 334.15875 238.393575 
L 334.54935 238.393575 
L 335.33055 237.849975 
L 335.72115 237.849975 
L 336.11175 237.578175 
L 336.50235 237.578175 
L 336.89295 237.306375 
L 338.45535 237.306375 
L 338.84595 237.034575 
L 339.23655 237.034575 
L 339.62715 236.762775 
L 340.79895 236.762775 
L 341.18955 236.490975 
L 341.58015 236.490975 
L 341.97075 236.219175 
L 342.36135 236.219175 
L 343.14255 235.675575 
L 344.31435 235.675575 
L 344.70495 235.403775 
L 346.26735 235.403775 
L 346.65795 235.131975 
L 347.04855 235.131975 
L 347.43915 234.860175 
L 348.61095 234.860175 
L 349.00155 234.588375 
L 349.78275 234.588375 
L 350.17335 234.316575 
L 350.56395 234.316575 
L 351.34515 233.772975 
L 351.73575 233.772975 
L 352.51695 233.229375 
L 355.64175 233.229375 
L 356.03235 232.957575 
L 357.98535 232.957575 
L 358.37595 232.685775 
L 358.76655 232.685775 
L 359.93835 231.870375 
L 361.11015 231.870375 
L 361.50075 231.598575 
L 361.89135 231.598575 
L 362.67255 231.054975 
L 363.06315 231.054975 
L 363.45375 230.783175 
L 366.57855 230.783175 
L 366.96915 230.511375 
L 368.92215 230.511375 
L 369.31275 230.239575 
L 369.70335 230.239575 
L 371.26575 229.152375 
L 373.60935 229.152375 
L 373.99995 228.880575 
L 376.73415 228.880575 
L 377.51535 228.336975 
L 378.29655 228.336975 
L 378.68715 228.065175 
L 379.07775 228.065175 
L 379.85895 227.521575 
L 381.03075 227.521575 
L 381.81195 226.977975 
L 382.59315 226.977975 
L 383.37435 226.434375 
L 384.93675 226.434375 
L 385.71795 225.890775 
L 386.49915 225.890775 
L 387.28035 225.347175 
L 387.67095 225.347175 
L 388.45215 224.803575 
L 389.23335 224.803575 
L 390.01455 224.259975 
L 390.40515 224.259975 
L 390.79575 223.988175 
L 391.18635 223.988175 
L 391.57695 223.716375 
L 393.92055 223.716375 
L 394.31115 223.444575 
L 397.04535 223.444575 
L 397.43595 223.172775 
L 398.21715 223.172775 
L 398.60775 222.900975 
L 399.77955 222.900975 
L 400.56075 222.357375 
L 401.34195 222.357375 
L 401.73255 222.085575 
L 402.12315 222.085575 
L 403.68555 220.998375 
L 404.46675 220.998375 
L 405.24795 220.454775 
L 408.37275 220.454775 
L 408.76335 220.182975 
L 409.15395 220.182975 
L 409.54455 219.911175 
L 410.32575 219.911175 
L 411.10695 219.367575 
L 413.05995 219.367575 
L 415.79415 217.464975 
L 416.57535 217.464975 
L 416.96595 217.193175 
L 417.35655 217.193175 
L 417.74715 216.921375 
L 419.30955 216.921375 
L 419.70015 216.649575 
L 420.09075 216.649575 
L 420.87195 216.105975 
L 421.26255 216.105975 
L 422.04375 215.562375 
L 422.43435 215.562375 
L 423.21555 215.018775 
L 423.60615 215.018775 
L 425.16855 213.931575 
L 425.94975 213.931575 
L 427.12155 213.116175 
L 427.51215 213.116175 
L 427.90275 212.844375 
L 428.29335 212.844375 
L 428.68395 212.572575 
L 429.07455 212.572575 
L 429.85575 212.028975 
L 430.63695 212.028975 
L 431.02755 211.757175 
L 431.80875 211.757175 
L 433.37115 210.669975 
L 433.76175 210.669975 
L 434.15235 210.398175 
L 434.54295 210.398175 
L 435.32415 209.854575 
L 436.88655 209.854575 
L 437.27715 209.582775 
L 438.83955 209.582775 
L 439.62075 209.039175 
L 440.01135 209.039175 
L 440.40195 208.767375 
L 441.18315 208.767375 
L 441.57375 208.495575 
L 441.96435 208.495575 
L 442.35495 208.223775 
L 443.13615 208.223775 
L 443.52675 207.951975 
L 444.30795 207.951975 
L 447.04215 206.049375 
L 447.43275 206.049375 
L 448.60455 205.233975 
L 448.99515 205.233975 
L 449.38575 204.962175 
L 450.16695 204.962175 
L 450.55755 204.690375 
L 450.94815 204.690375 
L 451.33875 204.418575 
L 453.29175 204.418575 
L 454.07295 203.874975 
L 454.46355 203.874975 
L 455.24475 203.331375 
L 456.80715 203.331375 
L 458.36955 202.244175 
L 459.15075 202.244175 
L 459.93195 201.700575 
L 460.71315 201.700575 
L 461.10375 201.428775 
L 461.88495 201.428775 
L 462.27555 201.156975 
L 463.05675 201.156975 
L 463.44735 200.885175 
L 464.61915 200.885175 
L 465.00975 200.613375 
L 465.40035 200.613375 
L 466.18155 200.069775 
L 466.57215 200.069775 
L 466.96275 199.797975 
L 468.13455 199.797975 
L 468.52515 199.526175 
L 468.91575 199.526175 
L 469.30635 199.254375 
L 469.69695 199.254375 
L 470.08755 198.982575 
L 472.82175 198.982575 
L 473.60295 198.438975 
L 474.38415 198.438975 
L 474.77475 198.167175 
L 475.16535 198.167175 
L 476.33715 197.351775 
L 476.72775 197.351775 
L 477.50895 196.808175 
L 477.89955 196.808175 
L 478.68075 196.264575 
L 479.07135 196.264575 
L 479.46195 195.992775 
L 480.24315 195.992775 
L 481.02435 195.449175 
L 481.02435 195.449175 
" style="fill:none;stroke:#000000;stroke-linecap:round;stroke-width:1.5;"/>
   </g>
   <g id="patch_3">
    <path d="M 90.03375 287.589375 
L 90.03375 15.789375 
" style="fill:none;stroke:#262626;stroke-linecap:square;stroke-linejoin:miter;stroke-width:1.25;"/>
   </g>
   <g id="patch_4">
    <path d="M 480.63375 287.589375 
L 480.63375 15.789375 
" style="fill:none;stroke:#262626;stroke-linecap:square;stroke-linejoin:miter;stroke-width:1.25;"/>
   </g>
   <g id="patch_5">
    <path d="M 90.03375 287.589375 
L 480.63375 287.589375 
" style="fill:none;stroke:#262626;stroke-linecap:square;stroke-linejoin:miter;stroke-width:1.25;"/>
   </g>
   <g id="patch_6">
    <path d="M 90.03375 15.789375 
L 480.63375 15.789375 
" style="fill:none;stroke:#262626;stroke-linecap:square;stroke-linejoin:miter;stroke-width:1.25;"/>
   </g>
   <g id="legend_1">
    <g id="line2d_7">
     <path d="M 106.23375 38.573438 
L 142.23375 38.573438 
" style="fill:none;stroke:#ff0000;stroke-linecap:round;stroke-width:1.5;"/>
    </g>
    <g id="line2d_8"/>
    <g id="text_15">
     <!-- last state -->
     <g style="fill:#262626;" transform="translate(156.63375 44.873438)scale(0.18 -0.18)">
      <use xlink:href="#ArialMT-108"/>
      <use x="22.216797" xlink:href="#ArialMT-97"/>
      <use x="77.832031" xlink:href="#ArialMT-115"/>
      <use x="127.832031" xlink:href="#ArialMT-116"/>
      <use x="155.615234" xlink:href="#ArialMT-32"/>
      <use x="183.398438" xlink:href="#ArialMT-115"/>
      <use x="233.398438" xlink:href="#ArialMT-116"/>
      <use x="261.181641" xlink:href="#ArialMT-97"/>
      <use x="316.796875" xlink:href="#ArialMT-116"/>
      <use x="344.580078" xlink:href="#ArialMT-101"/>
     </g>
    </g>
    <g id="line2d_9">
     <path d="M 106.23375 64.035 
L 142.23375 64.035 
" style="fill:none;stroke:#ff0000;stroke-linecap:round;stroke-width:1.5;"/>
    </g>
    <g id="line2d_10"/>
    <g id="text_16">
     <!-- last state -->
     <g style="fill:#262626;" transform="translate(156.63375 70.335)scale(0.18 -0.18)">
      <use xlink:href="#ArialMT-108"/>
      <use x="22.216797" xlink:href="#ArialMT-97"/>
      <use x="77.832031" xlink:href="#ArialMT-115"/>
      <use x="127.832031" xlink:href="#ArialMT-116"/>
      <use x="155.615234" xlink:href="#ArialMT-32"/>
      <use x="183.398438" xlink:href="#ArialMT-115"/>
      <use x="233.398438" xlink:href="#ArialMT-116"/>
      <use x="261.181641" xlink:href="#ArialMT-97"/>
      <use x="316.796875" xlink:href="#ArialMT-116"/>
      <use x="344.580078" xlink:href="#ArialMT-101"/>
     </g>
    </g>
    <g id="line2d_11">
     <path d="M 106.23375 89.496563 
L 142.23375 89.496563 
" style="fill:none;stroke:#ff0000;stroke-linecap:round;stroke-width:1.5;"/>
    </g>
    <g id="line2d_12"/>
    <g id="text_17">
     <!-- last state -->
     <g style="fill:#262626;" transform="translate(156.63375 95.796563)scale(0.18 -0.18)">
      <use xlink:href="#ArialMT-108"/>
      <use x="22.216797" xlink:href="#ArialMT-97"/>
      <use x="77.832031" xlink:href="#ArialMT-115"/>
      <use x="127.832031" xlink:href="#ArialMT-116"/>
      <use x="155.615234" xlink:href="#ArialMT-32"/>
      <use x="183.398438" xlink:href="#ArialMT-115"/>
      <use x="233.398438" xlink:href="#ArialMT-116"/>
      <use x="261.181641" xlink:href="#ArialMT-97"/>
      <use x="316.796875" xlink:href="#ArialMT-116"/>
      <use x="344.580078" xlink:href="#ArialMT-101"/>
     </g>
    </g>
    <g id="line2d_13">
     <path d="M 106.23375 114.958125 
L 142.23375 114.958125 
" style="fill:none;stroke:#000000;stroke-linecap:round;stroke-width:1.5;"/>
    </g>
    <g id="line2d_14"/>
    <g id="text_18">
     <!-- best state -->
     <g style="fill:#262626;" transform="translate(156.63375 121.258125)scale(0.18 -0.18)">
      <defs>
       <path d="M 14.703125 0 
L 6.546875 0 
L 6.546875 71.578125 
L 15.328125 71.578125 
L 15.328125 46.046875 
Q 20.90625 53.03125 29.546875 53.03125 
Q 34.328125 53.03125 38.59375 51.09375 
Q 42.875 49.171875 45.625 45.671875 
Q 48.390625 42.1875 49.953125 37.25 
Q 51.515625 32.328125 51.515625 26.703125 
Q 51.515625 13.375 44.921875 6.09375 
Q 38.328125 -1.171875 29.109375 -1.171875 
Q 19.921875 -1.171875 14.703125 6.5 
z
M 14.59375 26.3125 
Q 14.59375 17 17.140625 12.84375 
Q 21.296875 6.0625 28.375 6.0625 
Q 34.125 6.0625 38.328125 11.0625 
Q 42.53125 16.0625 42.53125 25.984375 
Q 42.53125 36.140625 38.5 40.96875 
Q 34.46875 45.796875 28.765625 45.796875 
Q 23 45.796875 18.796875 40.796875 
Q 14.59375 35.796875 14.59375 26.3125 
z
" id="ArialMT-98"/>
      </defs>
      <use xlink:href="#ArialMT-98"/>
      <use x="55.615234" xlink:href="#ArialMT-101"/>
      <use x="111.230469" xlink:href="#ArialMT-115"/>
      <use x="161.230469" xlink:href="#ArialMT-116"/>
      <use x="189.013672" xlink:href="#ArialMT-32"/>
      <use x="216.796875" xlink:href="#ArialMT-115"/>
      <use x="266.796875" xlink:href="#ArialMT-116"/>
      <use x="294.580078" xlink:href="#ArialMT-97"/>
      <use x="350.195312" xlink:href="#ArialMT-116"/>
      <use x="377.978516" xlink:href="#ArialMT-101"/>
     </g>
    </g>
    <g id="line2d_15">
     <path d="M 106.23375 140.419688 
L 142.23375 140.419688 
" style="fill:none;stroke:#000000;stroke-linecap:round;stroke-width:1.5;"/>
    </g>
    <g id="line2d_16"/>
    <g id="text_19">
     <!-- best state -->
     <g style="fill:#262626;" transform="translate(156.63375 146.719688)scale(0.18 -0.18)">
      <use xlink:href="#ArialMT-98"/>
      <use x="55.615234" xlink:href="#ArialMT-101"/>
      <use x="111.230469" xlink:href="#ArialMT-115"/>
      <use x="161.230469" xlink:href="#ArialMT-116"/>
      <use x="189.013672" xlink:href="#ArialMT-32"/>
      <use x="216.796875" xlink:href="#ArialMT-115"/>
      <use x="266.796875" xlink:href="#ArialMT-116"/>
      <use x="294.580078" xlink:href="#ArialMT-97"/>
      <use x="350.195312" xlink:href="#ArialMT-116"/>
      <use x="377.978516" xlink:href="#ArialMT-101"/>
     </g>
    </g>
    <g id="line2d_17">
     <path d="M 106.23375 165.88125 
L 142.23375 165.88125 
" style="fill:none;stroke:#000000;stroke-linecap:round;stroke-width:1.5;"/>
    </g>
    <g id="line2d_18"/>
    <g id="text_20">
     <!-- best state -->
     <g style="fill:#262626;" transform="translate(156.63375 172.18125)scale(0.18 -0.18)">
      <use xlink:href="#ArialMT-98"/>
      <use x="55.615234" xlink:href="#ArialMT-101"/>
      <use x="111.230469" xlink:href="#ArialMT-115"/>
      <use x="161.230469" xlink:href="#ArialMT-116"/>
      <use x="189.013672" xlink:href="#ArialMT-32"/>
      <use x="216.796875" xlink:href="#ArialMT-115"/>
      <use x="266.796875" xlink:href="#ArialMT-116"/>
      <use x="294.580078" xlink:href="#ArialMT-97"/>
      <use x="350.195312" xlink:href="#ArialMT-116"/>
      <use x="377.978516" xlink:href="#ArialMT-101"/>
     </g>
    </g>
   </g>
  </g>
 </g>
 <defs>
  <clipPath id="p24a5377d7f">
   <rect height="271.8" width="390.6" x="90.03375" y="15.789375"/>
  </clipPath>
 </defs>
</svg>
